<?xml version="1.0" encoding="UTF-8"?>
<svg width="36px" height="36px" viewBox="0 0 36 36" version="1.1" xmlns="http://www.w3.org/2000/svg" xmlns:xlink="http://www.w3.org/1999/xlink">
    <!-- Generator: Sketch 54 (76480) - https://sketchapp.com -->
    <title>dtpr_icons / retention / yes</title>
    <desc>Created with Sketch.</desc>
    <g id="dtpr_icons-/-retention-/-yes" stroke="none" stroke-width="1" fill="none" fill-rule="evenodd">
        <g id="Group-7" transform="translate(9.000000, 9.000000)" fill="#000000">
            <g id="Group-6">
                <path d="M9,1.8887 C8.04,1.8887 7.108,2.0767 6.232,2.4477 C5.386,2.8057 4.625,3.3187 3.972,3.9717 C3.318,4.6247 2.806,5.3857 2.447,6.2327 C2.077,7.1087 1.889,8.0397 1.889,8.9997 C1.889,9.9607 2.077,10.8917 2.447,11.7677 C2.806,12.6147 3.318,13.3747 3.972,14.0287 C4.625,14.6817 5.386,15.1947 6.232,15.5527 C7.108,15.9237 8.04,16.1117 9,16.1117 C9.96,16.1117 10.892,15.9237 11.768,15.5527 C12.614,15.1947 13.375,14.6817 14.028,14.0287 C14.682,13.3747 15.194,12.6147 15.553,11.7677 C15.923,10.8917 16.111,9.9607 16.111,8.9997 C16.111,8.0397 15.923,7.1087 15.553,6.2327 C15.194,5.3857 14.682,4.6247 14.028,3.9717 C13.375,3.3187 12.614,2.8057 11.768,2.4477 C10.892,2.0767 9.96,1.8887 9,1.8887 M9,17.8887 C7.8,17.8887 6.636,17.6537 5.54,17.1897 C4.481,16.7427 3.531,16.1017 2.715,15.2847 C1.898,14.4697 1.258,13.5187 0.81,12.4607 C0.346,11.3637 0.111,10.1997 0.111,8.9997 C0.111,7.8007 0.346,6.6367 0.81,5.5397 C1.258,4.4807 1.898,3.5307 2.715,2.7147 C3.531,1.8987 4.481,1.2577 5.54,0.8097 C6.636,0.3467 7.8,0.1117 9,0.1117 C10.199,0.1117 11.364,0.3467 12.46,0.8097 C13.519,1.2577 14.47,1.8987 15.285,2.7147 C16.102,3.5307 16.742,4.4807 17.19,5.5397 C17.653,6.6367 17.889,7.8007 17.889,8.9997 C17.889,10.1997 17.653,11.3637 17.19,12.4607 C16.742,13.5187 16.102,14.4697 15.285,15.2847 C14.47,16.1017 13.519,16.7427 12.46,17.1897 C11.364,17.6537 10.199,17.8887 9,17.8887" id="Fill-2"></path>
                <path d="M11.667,12.5557 C11.439,12.5557 11.212,12.4687 11.038,12.2957 L8.111,9.3677 L8.111,4.5557 C8.111,4.0647 8.509,3.6667 9,3.6667 C9.491,3.6667 9.889,4.0647 9.889,4.5557 L9.889,8.6317 L12.295,11.0377 C12.643,11.3857 12.643,11.9487 12.295,12.2957 C12.122,12.4687 11.895,12.5557 11.667,12.5557" id="Fill-4"></path>
            </g>
        </g>
        <g id="dtpr_icons-/-container-/-square" stroke="#000000" stroke-width="2">
            <rect id="Rectangle" x="3" y="3" width="30" height="30" rx="2"></rect>
        </g>
    </g>
</svg>