<?xml version="1.0" encoding="UTF-8"?>
<svg width="36px" height="36px" viewBox="0 0 36 36" version="1.1" xmlns="http://www.w3.org/2000/svg" xmlns:xlink="http://www.w3.org/1999/xlink">
    <!-- Generator: Sketch 54 (76480) - https://sketchapp.com -->
    <title>dtpr_icons / tech / image</title>
    <desc>Created with Sketch.</desc>
    <g id="dtpr_icons-/-tech-/-image" stroke="none" stroke-width="1" fill="none" fill-rule="evenodd">
        <g id="dtpr_icons-/-container-/-hexagon" stroke="#000000">
            <g id="Group-6" transform="translate(4.000000, 2.000000)">
                <path d="M29,23.3623473 C29,24.1747401 28.5668669,24.9262388 27.8637022,25.3327062 L15.1374487,32.6944323 C14.4338084,33.1018559 13.5661916,33.1018559 12.8629306,32.6946518 L0.135278613,25.332498 C-0.56726465,24.9257096 -1,24.1743377 -1,23.3623473 L-1,8.63781792 C-1,7.82533466 -0.567409549,7.07453951 0.13562416,6.66746721 L12.8636403,-0.695557449 C13.5667275,-1.10148085 14.4332725,-1.10148085 15.1371226,-0.695116592 L27.863434,6.66730391 C28.5670118,7.07401009 29,7.82493224 29,8.63781792 L29,23.3623473 Z" id="Stroke-26" stroke-width="2"></path>
            </g>
        </g>
        <g id="dtpr_icons-/-tech-/-ic_black-/-image" transform="translate(6.000000, 6.000000)">
            <g id="outline-camera_alt-24px">
                <polygon id="Path" points="0 0 24 0 24 24 0 24"></polygon>
                <path d="M20,4 L16.83,4 L15,2 L9,2 L7.17,4 L4,4 C2.9,4 2,4.9 2,6 L2,18 C2,19.1 2.9,20 4,20 L20,20 C21.1,20 22,19.1 22,18 L22,6 C22,4.9 21.1,4 20,4 Z M20,18 L4,18 L4,6 L8.05,6 L9.88,4 L14.12,4 L15.95,6 L20,6 L20,18 Z M12,7 C9.24,7 7,9.24 7,12 C7,14.76 9.24,17 12,17 C14.76,17 17,14.76 17,12 C17,9.24 14.76,7 12,7 Z M12,15 C10.35,15 9,13.65 9,12 C9,10.35 10.35,9 12,9 C13.65,9 15,10.35 15,12 C15,13.65 13.65,15 12,15 Z" id="Shape" fill="#000000" fill-rule="nonzero"></path>
            </g>
        </g>
    </g>
</svg>