<?xml version="1.0" encoding="UTF-8"?>
<svg width="36px" height="36px" viewBox="0 0 36 36" version="1.1" xmlns="http://www.w3.org/2000/svg" xmlns:xlink="http://www.w3.org/1999/xlink">
    <!-- Generator: Sketch 54 (76480) - https://sketchapp.com -->
    <title>dtpr_icons / tech / water</title>
    <desc>Created with Sketch.</desc>
    <g id="dtpr_icons-/-tech-/-water" stroke="none" stroke-width="1" fill="none" fill-rule="evenodd">
        <g id="dtpr_icons-/-container-/-hexagon" stroke="#000000">
            <g id="Group-6" transform="translate(4.000000, 2.000000)">
                <path d="M29,23.3623473 C29,24.1747401 28.5668669,24.9262388 27.8637022,25.3327062 L15.1374487,32.6944323 C14.4338084,33.1018559 13.5661916,33.1018559 12.8629306,32.6946518 L0.135278613,25.332498 C-0.56726465,24.9257096 -1,24.1743377 -1,23.3623473 L-1,8.63781792 C-1,7.82533466 -0.567409549,7.07453951 0.13562416,6.66746721 L12.8636403,-0.695557449 C13.5667275,-1.10148085 14.4332725,-1.10148085 15.1371226,-0.695116592 L27.863434,6.66730391 C28.5670118,7.07401009 29,7.82493224 29,8.63781792 L29,23.3623473 Z" id="Stroke-26" stroke-width="2"></path>
            </g>
        </g>
        <g id="dtpr_icons-/-tech-/-ic_black-/-water" transform="translate(6.000000, 6.000000)">
            <g id="outline-invert_colors-24px-(1)">
                <polygon id="Path" points="24 0 0 0 0 24 24 24"></polygon>
                <path d="M17.66,7.93 C20.78,11.05 20.78,16.12 17.66,19.24 C16.1,20.8 14.05,21.58 12,21.58 C9.95,21.58 7.9,20.8 6.34,19.24 C3.22,16.12 3.22,11.05 6.34,7.93 L11.2928932,2.97710678 C11.6834175,2.58658249 12.3165825,2.58658249 12.7071068,2.97710678 L17.66,7.93 Z M12.7079392,5.80960883 C12.7073846,5.80905293 12.7068293,5.80849768 12.7062734,5.80794309 C12.3152894,5.41787905 11.6821249,5.41862483 11.2920608,5.80960883 L7.76,9.35 C6.62,10.48 6,11.99 6,13.59 C6,15.19 6.62,16.69 7.76,17.83 C8.89,18.97 10.4,19.59 12,19.59 C13.6,19.59 15.11,18.97 16.24,17.83 C17.38,16.69 18,15.19 18,13.59 C18,11.99 17.38,10.48 16.24,9.35 L12.7079392,5.80960883 Z" id="Combined-Shape" fill="#000000" fill-rule="nonzero"></path>
            </g>
        </g>
    </g>
</svg>