<?xml version="1.0" encoding="UTF-8"?>
<svg width="36px" height="36px" viewBox="0 0 36 36" version="1.1" xmlns="http://www.w3.org/2000/svg" xmlns:xlink="http://www.w3.org/1999/xlink">
    <!-- Generator: Sketch 57.1 (83088) - https://sketch.com -->
    <title>dtpr_icons / tech / weight</title>
    <desc>Created with Sketch.</desc>
    <g id="dtpr_icons-/-tech-/-weight" stroke="none" stroke-width="1" fill="none" fill-rule="evenodd">
        <g id="dtpr_icons-/-container-/-hexagon" stroke="#000000">
            <g id="Group-6" transform="translate(4.000000, 2.000000)">
                <path d="M29,23.3623473 C29,24.1747401 28.5668669,24.9262388 27.8637022,25.3327062 L15.1374487,32.6944323 C14.4338084,33.1018559 13.5661916,33.1018559 12.8629306,32.6946518 L0.135278613,25.332498 C-0.56726465,24.9257096 -1,24.1743377 -1,23.3623473 L-1,8.63781792 C-1,7.82533466 -0.567409549,7.07453951 0.13562416,6.66746721 L12.8636403,-0.695557449 C13.5667275,-1.10148085 14.4332725,-1.10148085 15.1371226,-0.695116592 L27.863434,6.66730391 C28.5670118,7.07401009 29,7.82493224 29,8.63781792 L29,23.3623473 Z" id="Stroke-26" stroke-width="2"></path>
            </g>
        </g>
        <g id="dtpr_icons-/-tech-/-ic_black-/-weight" transform="translate(6.000000, 6.000000)">
            <polygon id="Path" points="0 0 24 0 24 24 0 24"></polygon>
            <path d="M14.5584816,8 L9.44151844,8 C8.58065762,8 7.81637994,8.55086019 7.54415184,9.36754447 L4.87748518,17.3675445 C4.52818963,18.4154311 5.09450961,19.5480711 6.14239624,19.8973666 C6.34632918,19.9653442 6.55988758,20 6.77485177,20 L17.2251482,20 C18.3297177,20 19.2251482,19.1045695 19.2251482,18 C19.2251482,17.7850358 19.1904925,17.5714774 19.1225148,17.3675445 L16.4558482,9.36754447 C16.1836201,8.55086019 15.4193424,8 14.5584816,8 Z" id="Path-2" stroke="#000000" stroke-width="2"></path>
            <circle id="Oval" stroke="#000000" stroke-width="2" cx="12" cy="5" r="2"></circle>
        </g>
    </g>
</svg>