<?xml version="1.0" encoding="UTF-8"?>
<svg width="36px" height="36px" viewBox="0 0 36 36" version="1.1" xmlns="http://www.w3.org/2000/svg" xmlns:xlink="http://www.w3.org/1999/xlink">
    <!-- Generator: Sketch 54 (76480) - https://sketchapp.com -->
    <title>dtpr_icons / data / binary</title>
    <desc>Created with Sketch.</desc>
    <g id="dtpr_icons-/-data-/-binary" stroke="none" stroke-width="1" fill="none" fill-rule="evenodd">
        <g id="Group-16" transform="translate(10.000000, 12.000000)" fill="#000000">
            <g id="Group">
                <path d="M6.27329009,10.3790428 C5.7977637,10.3790428 5.41029774,9.99157681 5.41029774,9.51605042 C5.41029774,9.03948801 5.7977637,8.65202206 6.27329009,8.65202206 C6.74881649,8.65202206 7.13628244,9.03948801 7.13628244,9.51605042 C7.13628244,9.99157681 6.74881649,10.3790428 6.27329009,10.3790428 M8.10494733,7.68335718 C7.86770213,7.44611198 7.59005273,7.25963104 7.28132318,7.12909438 C6.96223357,6.9933777 6.62242385,6.92603736 6.27329009,6.92603736 C5.92415633,6.92603736 5.58434662,6.9933777 5.26422101,7.12909438 C4.95652745,7.25963104 4.67887805,7.44611198 4.44163286,7.68335718 C4.20335166,7.92163838 4.01687072,8.19928778 3.88633406,8.50698133 C3.75165338,8.82710694 3.68327703,9.16691666 3.68327703,9.51605042 C3.68327703,9.86518418 3.75165338,10.2049939 3.88633406,10.5240835 C4.01687072,10.8328131 4.20335166,11.1094265 4.44163286,11.3477077 C4.67887805,11.5849528 4.95652745,11.7714338 5.26422101,11.9019704 C5.58434662,12.0376871 5.92415633,12.1060635 6.27329009,12.1060635 C6.62242385,12.1060635 6.96223357,12.0376871 7.28132318,11.9019704 C7.59005273,11.7714338 7.86770213,11.5849528 8.10494733,11.3477077 C8.34219253,11.1094265 8.52867347,10.8328131 8.65921012,10.5240835 C8.79492681,10.2049939 8.86330315,9.86518418 8.86330315,9.51605042 C8.86330315,9.16691666 8.79492681,8.82710694 8.65921012,8.50698133 C8.52867347,8.19928778 8.34219253,7.92163838 8.10494733,7.68335718" id="Fill-4"></path>
                <path d="M13.1807513,8.65202206 C13.6562777,8.65202206 14.0437437,9.03948801 14.0437437,9.51501441 C14.0437437,9.99157681 13.6562777,10.3790428 13.1807513,10.3790428 C12.7041889,10.3790428 12.316723,9.99157681 12.316723,9.51501441 C12.316723,9.03948801 12.7041889,8.65202206 13.1807513,8.65202206 M11.3480581,11.3477077 C11.5863393,11.5849528 11.8639887,11.7714338 12.1716822,11.9019704 C12.4918078,12.0376871 12.8316176,12.1060635 13.1807513,12.1060635 C13.5298851,12.1060635 13.8696948,12.0376871 14.1898204,11.9019704 C14.497514,11.7714338 14.7741274,11.5849528 15.0124086,11.3477077 C15.2496538,11.1094265 15.4371707,10.8328131 15.5677074,10.5240835 C15.702388,10.2049939 15.7707644,9.86518418 15.7707644,9.51501441 C15.7707644,9.16691666 15.702388,8.82710694 15.5677074,8.50698133 C15.4371707,8.19928778 15.2496538,7.92163838 15.0124086,7.68335718 C14.7741274,7.44611198 14.497514,7.25963104 14.1898204,7.12909438 C13.8696948,6.9933777 13.5298851,6.92500135 13.1807513,6.92500135 C12.8316176,6.92500135 12.4918078,6.9933777 12.1716822,7.12909438 C11.8639887,7.25963104 11.5863393,7.44611198 11.3480581,7.68335718 C11.1118489,7.92163838 10.9243319,8.19928778 10.7937953,8.50698133 C10.6580786,8.82710694 10.5907383,9.16691666 10.5907383,9.51501441 C10.5907383,9.86518418 10.6580786,10.2049939 10.7937953,10.5240835 C10.9243319,10.8328131 11.1118489,11.1094265 11.3480581,11.3477077" id="Fill-6"></path>
                <path d="M1.09222797,6.92551936 C0.615665567,6.92551936 0.229235618,7.3119493 0.229235618,7.78851171 L0.229235618,11.2425531 C0.229235618,11.7191155 0.615665567,12.1055455 1.09222797,12.1055455 C1.56879037,12.1055455 1.95522032,11.7191155 1.95522032,11.2425531 L1.95522032,7.78851171 C1.95522032,7.3119493 1.56879037,6.92551936 1.09222797,6.92551936" id="Fill-8"></path>
                <path d="M2.81924868,3.47147794 C2.34372228,3.47147794 1.95625633,3.08401199 1.95625633,2.60848559 C1.95625633,2.13192319 2.34372228,1.74445723 2.81924868,1.74445723 C3.29477508,1.74445723 3.68224103,2.13192319 3.68224103,2.60848559 C3.68224103,3.08401199 3.29477508,3.47147794 2.81924868,3.47147794 M4.65090591,4.44014282 C4.88918711,4.20186162 5.07566805,3.92524823 5.20620471,3.61651867 C5.34088539,3.29742906 5.40926174,2.95761935 5.40926174,2.60848559 C5.40926174,2.25935183 5.34088539,1.91954211 5.20620471,1.5994165 C5.07566805,1.29172295 4.88918711,1.01407355 4.65090591,0.775792347 C4.41366072,0.538547151 4.13601132,0.352066211 3.82831777,0.221529553 C3.50819215,0.0858128682 3.16838244,0.0184725287 2.81924868,0.0184725287 C2.47011492,0.0184725287 2.1303052,0.0858128682 1.81017959,0.221529553 C1.50248604,0.352066211 1.22483664,0.538547151 0.987591442,0.775792347 C0.750346246,1.01407355 0.563865306,1.29172295 0.433328647,1.5994165 C0.297611963,1.91954211 0.229235618,2.25935183 0.229235618,2.60848559 C0.229235618,2.95761935 0.297611963,3.29742906 0.433328647,3.61651867 C0.563865306,3.92524823 0.750346246,4.20186162 0.987591442,4.44014282 C1.22483664,4.67738802 1.50248604,4.86386896 1.81017959,4.99440562 C2.1303052,5.1301223 2.47011492,5.19849865 2.81924868,5.19849865 C3.16838244,5.19849865 3.50819215,5.1301223 3.82831777,4.99440562 C4.13601132,4.86386896 4.41366072,4.67738802 4.65090591,4.44014282" id="Fill-10"></path>
                <path d="M13.1807513,1.74445723 C13.6562777,1.74445723 14.0437437,2.13192319 14.0437437,2.60744958 C14.0437437,3.08401199 13.6562777,3.47147794 13.1807513,3.47147794 C12.7041889,3.47147794 12.316723,3.08401199 12.316723,2.60744958 C12.316723,2.13192319 12.7041889,1.74445723 13.1807513,1.74445723 M11.3480581,4.44014282 C11.5863393,4.67738802 11.8639887,4.86386896 12.1716822,4.99440562 C12.4918078,5.1301223 12.8316176,5.19849865 13.1807513,5.19849865 C13.5298851,5.19849865 13.8696948,5.1301223 14.1898204,4.99440562 C14.497514,4.86386896 14.7741274,4.67738802 15.0124086,4.44014282 C15.2496538,4.20186162 15.4371707,3.92524823 15.5677074,3.61651867 C15.702388,3.29742906 15.7707644,2.95761935 15.7707644,2.60744958 C15.7707644,2.25935183 15.702388,1.91954211 15.5677074,1.5994165 C15.4371707,1.29172295 15.2496538,1.01407355 15.0124086,0.775792347 C14.7741274,0.538547151 14.497514,0.352066211 14.1898204,0.221529553 C13.8696948,0.0858128682 13.5298851,0.0174365234 13.1807513,0.0174365234 C12.8316176,0.0174365234 12.4918078,0.0858128682 12.1716822,0.221529553 C11.8639887,0.352066211 11.5863393,0.538547151 11.3480581,0.775792347 C11.1118489,1.01407355 10.9243319,1.29172295 10.7937953,1.5994165 C10.6580786,1.91954211 10.5907383,2.25935183 10.5907383,2.60744958 C10.5907383,2.95761935 10.6580786,3.29742906 10.7937953,3.61651867 C10.9243319,3.92524823 11.1118489,4.20186162 11.3480581,4.44014282" id="Fill-12"></path>
                <path d="M7.13669685,0.880946877 L7.13669685,4.33498829 C7.13669685,4.8115507 7.5231268,5.19798064 7.9996892,5.19798064 C8.4762516,5.19798064 8.86371756,4.8115507 8.86371756,4.33498829 L8.86371756,0.880946877 C8.86371756,0.404384475 8.4762516,0.017954526 7.9996892,0.017954526 C7.5231268,0.017954526 7.13669685,0.404384475 7.13669685,0.880946877" id="Fill-14"></path>
            </g>
        </g>
        <g id="dtpr_icons-/-container-/-circle" stroke="#000000" stroke-width="2">
            <rect id="Rectangle" x="2" y="2" width="32" height="32" rx="15"></rect>
        </g>
    </g>
</svg>