<?xml version="1.0" encoding="UTF-8"?>
<svg width="36px" height="36px" viewBox="0 0 36 36" version="1.1" xmlns="http://www.w3.org/2000/svg" xmlns:xlink="http://www.w3.org/1999/xlink">
    <!-- Generator: Sketch 54 (76480) - https://sketchapp.com -->
    <title>dtpr_icons / data / boolean</title>
    <desc>Created with Sketch.</desc>
    <g id="dtpr_icons-/-data-/-boolean" stroke="none" stroke-width="1" fill="none" fill-rule="evenodd">
        <g id="Group-8" transform="translate(9.000000, 11.000000)" fill="#000000">
            <g id="Group">
                <path d="M3.9993,5.395 C3.0803,5.395 2.3323,4.647 2.3323,3.728 C2.3323,2.809 3.0803,2.061 3.9993,2.061 C4.9183,2.061 5.6663,2.809 5.6663,3.728 C5.6663,4.647 4.9183,5.395 3.9993,5.395 M6.3563,1.371 C6.0513,1.065 5.6943,0.825 5.2973,0.657 C4.8853,0.482 4.4493,0.395 3.9993,0.395 C3.5493,0.395 3.1133,0.482 2.7013,0.657 C2.3043,0.825 1.9483,1.065 1.6423,1.371 C1.3363,1.677 1.0963,2.033 0.9283,2.43 C0.7533,2.842 0.6663,3.278 0.6663,3.728 C0.6663,4.178 0.7533,4.614 0.9283,5.026 C1.0963,5.423 1.3363,5.78 1.6423,6.085 C1.9483,6.391 2.3043,6.632 2.7013,6.799 C3.1133,6.974 3.5493,7.062 3.9993,7.062 C4.4493,7.062 4.8853,6.974 5.2973,6.799 C5.6943,6.632 6.0513,6.391 6.3563,6.085 C6.5643,5.877 6.7423,5.646 6.8873,5.395 L15.6673,5.395 C16.5873,5.395 17.3343,4.649 17.3343,3.728 C17.3343,2.808 16.5873,2.061 15.6673,2.061 L6.8873,2.061 C6.7423,1.81 6.5643,1.579 6.3563,1.371" id="Fill-4"></path>
                <path d="M14.0007,12.0625 C13.0817,12.0625 12.3337,11.3145 12.3337,10.3955 C12.3337,9.4765 13.0817,8.7295 14.0007,8.7295 C14.9197,8.7295 15.6677,9.4765 15.6677,10.3955 C15.6677,11.3145 14.9197,12.0625 14.0007,12.0625 M16.3577,8.0385 C16.0527,7.7325 15.6957,7.4925 15.2987,7.3245 C14.8877,7.1505 14.4497,7.0625 14.0007,7.0625 C13.5507,7.0625 13.1137,7.1505 12.7027,7.3245 C12.3057,7.4925 11.9487,7.7325 11.6437,8.0385 C11.4357,8.2465 11.2577,8.4775 11.1127,8.7295 L2.3327,8.7295 C1.4117,8.7295 0.6657,9.4755 0.6657,10.3955 C0.6657,11.3165 1.4117,12.0625 2.3327,12.0625 L11.1127,12.0625 C11.2577,12.3135 11.4357,12.5445 11.6437,12.7525 C11.9487,13.0595 12.3057,13.2995 12.7027,13.4675 C13.1137,13.6415 13.5507,13.7295 14.0007,13.7295 C14.4497,13.7295 14.8877,13.6415 15.2987,13.4675 C15.6957,13.2995 16.0527,13.0595 16.3577,12.7525 C16.6637,12.4475 16.9037,12.0905 17.0717,11.6935 C17.2457,11.2825 17.3347,10.8455 17.3347,10.3955 C17.3347,9.9455 17.2457,9.5095 17.0717,9.0975 C16.9037,8.7005 16.6637,8.3445 16.3577,8.0385" id="Fill-6"></path>
            </g>
        </g>
        <g id="dtpr_icons-/-container-/-circle" stroke="#000000" stroke-width="2">
            <rect id="Rectangle" x="2" y="2" width="32" height="32" rx="15"></rect>
        </g>
    </g>
</svg>