<?xml version="1.0" encoding="UTF-8"?>
<svg width="36px" height="36px" viewBox="0 0 36 36" version="1.1" xmlns="http://www.w3.org/2000/svg" xmlns:xlink="http://www.w3.org/1999/xlink">
    <!-- Generator: Sketch 54 (76480) - https://sketchapp.com -->
    <title>dtpr_icons / data / spatial</title>
    <desc>Created with Sketch.</desc>
    <g id="dtpr_icons-/-data-/-spatial" stroke="none" stroke-width="1" fill="none" fill-rule="evenodd">
        <g id="Group-6" transform="translate(10.000000, 9.000000)" fill="#000000">
            <path d="M8.86132539,15.4617234 L8.86132539,12.4452277 C8.86132539,11.9698635 8.47586705,11.5833718 8.00050287,11.5833718 C7.5251387,11.5833718 7.13864695,11.9698635 7.13864695,12.4452277 L7.13864695,15.4617234 L1.97267844,12.4793299 L1.97267844,6.5145429 L7.56957491,9.7459859 C7.70288356,9.82245753 7.85169322,9.86172674 8.00050287,9.86172674 C8.14931253,9.86172674 8.29812218,9.82245753 8.43039743,9.7459859 L14.0272939,6.5145429 L14.0272939,12.4793299 L8.86132539,15.4617234 Z M7.56957491,0.300706402 L4.23582528,2.22489791 C3.82349852,2.46258 3.68295607,2.9896142 3.92063816,3.40194095 C4.07978182,3.67785885 4.36913393,3.83286891 4.66675324,3.83286891 C4.81349609,3.83286891 4.96127235,3.7946331 5.0966478,3.71712807 L8.00050287,2.04095265 L13.1664714,5.02231275 L8.00050287,8.00573966 L1.55311788,4.28343148 C1.49421406,4.24726246 1.43117664,4.21936065 1.36400561,4.19869265 C1.36297221,4.19869265 1.36193881,4.19869265 1.36193881,4.19869265 C1.35573841,4.19662585 1.34953801,4.19455904 1.34437101,4.19352564 C1.3412708,4.19249224 1.3381706,4.19145884 1.3350704,4.19145884 C1.3319702,4.19042544 1.32887,4.18939204 1.3257698,4.18835864 C1.3195694,4.18629184 1.31440239,4.18525844 1.30923539,4.18422504 C1.30820199,4.18422504 1.30716859,4.18319164 1.30510179,4.18319164 C1.21932956,4.16355703 1.13252393,4.15735663 1.0467517,4.16355703 C1.04571829,4.16355703 1.04468489,4.16459043 1.04365149,4.16459043 C1.03848449,4.16459043 1.03228409,4.16562383 1.02711709,4.16562383 C1.02401689,4.16562383 1.01988329,4.16665723 1.01574968,4.16665723 C1.01368288,4.16769063 1.01058268,4.16769063 1.00851588,4.16769063 C0.89690864,4.18112484 0.791501801,4.21626045 0.697462366,4.26689707 C0.697462366,4.26793047 0.696428965,4.26793047 0.695395565,4.26896387 C0.690228563,4.27103067 0.686094962,4.27413087 0.68092796,4.27723108 C0.676794358,4.27929788 0.672660757,4.28239808 0.667493755,4.28549828 L0.664393554,4.28653168 C0.572420919,4.3423353 0.490782289,4.41570673 0.422577864,4.50561256 C0.421544464,4.50767936 0.420511063,4.50974616 0.419477663,4.51181296 C0.416377462,4.51491316 0.414310661,4.51801336 0.41224386,4.52111357 C0.409143659,4.52524717 0.405010057,4.53041417 0.401909856,4.53454777 C0.401909856,4.53558117 0.400876456,4.53558117 0.400876456,4.53661457 C0.352306638,4.6079192 0.314070824,4.68645763 0.288235814,4.77119646 C0.288235814,4.77222986 0.288235814,4.77326326 0.287202414,4.77326326 C0.286169013,4.77946366 0.284102213,4.78463066 0.282035412,4.78979767 C0.282035412,4.79393127 0.281002011,4.79703147 0.279968611,4.80013167 C0.278935211,4.80323187 0.27790181,4.80633207 0.27686841,4.80943227 C0.27583501,4.81459927 0.274801609,4.82079968 0.272734808,4.82596668 C0.272734808,4.82700008 0.272734808,4.82803348 0.272734808,4.82906688 C0.257233803,4.8972713 0.25,4.96547573 0.25,5.03471356 L0.25,12.9763955 C0.25,13.2843488 0.415344061,13.5685339 0.68092796,13.7225106 L7.56957491,17.7000686 C7.70288356,17.7765403 7.85169322,17.8147761 8.00050287,17.8147761 C8.14931253,17.8147761 8.29812218,17.7765403 8.43039743,17.7000686 L15.3200778,13.7225106 C15.5856617,13.5685339 15.7499723,13.2843488 15.7499723,12.9763955 L15.7499723,5.03471356 C15.7510057,4.90243831 15.7231039,4.76912966 15.6621333,4.64408821 C15.6610999,4.64202141 15.6600665,4.63995461 15.6600665,4.63892121 C15.6569663,4.63272081 15.6538661,4.6265204 15.6497325,4.62032 L15.6466323,4.6141196 C15.6424987,4.6079192 15.6383651,4.60068539 15.6342315,4.59241819 C15.6342315,4.59241819 15.6342315,4.59138479 15.6331981,4.59138479 L15.6218307,4.56968338 C15.6207973,4.56761658 15.6187305,4.56658318 15.6176971,4.56451638 C15.6145969,4.55831598 15.6104633,4.55314898 15.6063297,4.54694858 L15.6032295,4.54281497 C15.5267579,4.42707413 15.4244512,4.3351015 15.3097438,4.27103067 L8.43039743,0.300706402 C8.16481353,0.146729745 7.83619221,0.146729745 7.56957491,0.300706402 L7.56957491,0.300706402 Z" id="Fill-4"></path>
        </g>
        <g id="dtpr_icons-/-container-/-circle" stroke="#000000" stroke-width="2">
            <rect id="Rectangle" x="2" y="2" width="32" height="32" rx="15"></rect>
        </g>
    </g>
</svg>