<?xml version="1.0" encoding="UTF-8"?>
<svg width="36px" height="36px" viewBox="0 0 36 36" version="1.1" xmlns="http://www.w3.org/2000/svg" xmlns:xlink="http://www.w3.org/1999/xlink">
    <!-- Generator: Sketch 54 (76480) - https://sketchapp.com -->
    <title>dtpr_icons / data / table</title>
    <desc>Created with Sketch.</desc>
    <g id="dtpr_icons-/-data-/-table" stroke="none" stroke-width="1" fill="none" fill-rule="evenodd">
        <g id="Group-20" transform="translate(9.000000, 12.000000)" fill="#000000">
            <g id="Group">
                <path d="M3.98141727,0.207139648 L1.47247814,0.207139648 C1.01083334,0.207139648 0.636499625,0.581473366 0.636499625,1.04311817 C0.636499625,1.50476297 1.01083334,1.88010026 1.47247814,1.88010026 L3.98141727,1.88010026 C4.44306207,1.88010026 4.81739579,1.50476297 4.81739579,1.04311817 C4.81739579,0.581473366 4.44306207,0.207139648 3.98141727,0.207139648" id="Fill-4"></path>
                <path d="M6.49085819,1.04311817 L6.49085819,1.04311817 C6.49085819,1.50476297 6.86519191,1.87909668 7.32683671,1.87909668 L16.5276183,1.87909668 C16.9902667,1.87909668 17.3646004,1.50476297 17.3646004,1.04311817 C17.3646004,0.581473366 16.9902667,0.207139648 16.5276183,0.207139648 L7.32683671,0.207139648 C6.86519191,0.207139648 6.49085819,0.581473366 6.49085819,1.04311817" id="Fill-6"></path>
                <path d="M3.98141727,3.55255908 L1.47247814,3.55255908 C1.01083334,3.55255908 0.636499625,3.9268928 0.636499625,4.3885376 C0.636499625,4.85118598 1.01083334,5.22551969 1.47247814,5.22551969 L3.98141727,5.22551969 C4.44306207,5.22551969 4.81739579,4.85118598 4.81739579,4.3885376 C4.81739579,3.9268928 4.44306207,3.55255908 3.98141727,3.55255908" id="Fill-8"></path>
                <path d="M16.5275179,3.55255908 L7.32773993,3.55255908 C6.86509155,3.55255908 6.49075783,3.9268928 6.49075783,4.3885376 C6.49075783,4.85118598 6.86509155,5.22551969 7.32773993,5.22551969 L16.5275179,5.22551969 C16.9901663,5.22551969 17.3645,4.85118598 17.3645,4.3885376 C17.3645,3.9268928 16.9901663,3.55255908 16.5275179,3.55255908" id="Fill-10"></path>
                <path d="M3.98141727,6.89848031 L1.47247814,6.89848031 C1.01083334,6.89848031 0.636499625,7.27281402 0.636499625,7.73445882 C0.636499625,8.19610362 1.01083334,8.57144092 1.47247814,8.57144092 L3.98141727,8.57144092 C4.44306207,8.57144092 4.81739579,8.19610362 4.81739579,7.73445882 C4.81739579,7.27281402 4.44306207,6.89848031 3.98141727,6.89848031" id="Fill-12"></path>
                <path d="M16.5275179,6.89848031 L7.32773993,6.89848031 C6.86509155,6.89848031 6.49075783,7.27281402 6.49075783,7.73445882 C6.49075783,8.19610362 6.86509155,8.57144092 7.32773993,8.57144092 L16.5275179,8.57144092 C16.9901663,8.57144092 17.3645,8.19610362 17.3645,7.73445882 C17.3645,7.27281402 16.9901663,6.89848031 16.5275179,6.89848031" id="Fill-14"></path>
                <path d="M3.98141727,10.2438997 L1.47247814,10.2438997 C1.01083334,10.2438997 0.636499625,10.6182335 0.636499625,11.0798783 C0.636499625,11.5425266 1.01083334,11.9168604 1.47247814,11.9168604 L3.98141727,11.9168604 C4.44306207,11.9168604 4.81739579,11.5425266 4.81739579,11.0798783 C4.81739579,10.6182335 4.44306207,10.2438997 3.98141727,10.2438997" id="Fill-16"></path>
                <path d="M16.5275179,10.2438997 L7.32773993,10.2438997 C6.86509155,10.2438997 6.49075783,10.6182335 6.49075783,11.0798783 C6.49075783,11.5425266 6.86509155,11.9168604 7.32773993,11.9168604 L16.5275179,11.9168604 C16.9901663,11.9168604 17.3645,11.5425266 17.3645,11.0798783 C17.3645,10.6182335 16.9901663,10.2438997 16.5275179,10.2438997" id="Fill-18"></path>
            </g>
        </g>
        <g id="dtpr_icons-/-container-/-circle" stroke="#000000" stroke-width="2">
            <rect id="Rectangle" x="2" y="2" width="32" height="32" rx="15"></rect>
        </g>
    </g>
</svg>