<?xml version="1.0" encoding="UTF-8"?>
<svg width="36px" height="36px" viewBox="0 0 36 36" version="1.1" xmlns="http://www.w3.org/2000/svg" xmlns:xlink="http://www.w3.org/1999/xlink">
    <!-- Generator: Sketch 54 (76480) - https://sketchapp.com -->
    <title>dtpr_icons / data / values</title>
    <desc>Created with Sketch.</desc>
    <g id="dtpr_icons-/-data-/-values" stroke="none" stroke-width="1" fill="none" fill-rule="evenodd">
        <g id="Group-6" transform="translate(9.000000, 12.000000)" fill="#000000">
            <path d="M6.98558018,4.27982612 L6.98462405,4.27982612 C6.75037276,4.27982612 6.527595,4.37735115 6.36696555,4.54754188 L0.730592697,10.537682 C0.409333787,10.8790196 0.425587958,11.4173195 0.767881678,11.7395345 C0.931379517,11.8934711 1.14077149,11.9699613 1.34920733,11.9699613 C1.57580959,11.9699613 1.80145573,11.8800853 1.96877808,11.7022455 L6.98749243,6.36800904 L9.59007206,9.11496395 C9.75643828,9.28993532 9.99068957,9.38650422 10.2325899,9.37981132 C10.4735341,9.37311843 10.7020486,9.26220762 10.8578974,9.07767497 L17.3002859,1.42769716 C17.6024223,1.06819314 17.5565281,0.532761623 17.1979802,0.229669139 C16.8384762,-0.0724672171 16.3020886,-0.026573087 15.9999522,0.332930932 L10.1694855,7.25433942 L7.60323868,4.54562962 C7.44260922,4.37639502 7.21887534,4.27982612 6.98558018,4.27982612" id="Fill-4"></path>
        </g>
        <g id="dtpr_icons-/-container-/-circle" stroke="#000000" stroke-width="2">
            <rect id="Rectangle" x="2" y="2" width="32" height="32" rx="15"></rect>
        </g>
    </g>
</svg>