<?xml version="1.0" encoding="UTF-8"?>
<svg width="36px" height="36px" viewBox="0 0 36 36" version="1.1" xmlns="http://www.w3.org/2000/svg" xmlns:xlink="http://www.w3.org/1999/xlink">
    <!-- Generator: Sketch 54 (76480) - https://sketchapp.com -->
    <title>dtpr_icons / purpose / emergency</title>
    <desc>Created with Sketch.</desc>
    <g id="dtpr_icons-/-purpose-/-emergency" stroke="none" stroke-width="1" fill="none" fill-rule="evenodd">
        <g id="dtpr_icons-/-container-/-black-/-hexagon" fill="#000000" stroke="#000000">
            <g id="Group-6" transform="translate(4.000000, 2.000000)">
                <path d="M29,23.3623473 C29,24.1747401 28.5668669,24.9262388 27.8637022,25.3327062 L15.1374487,32.6944323 C14.4338084,33.1018559 13.5661916,33.1018559 12.8629306,32.6946518 L0.135278613,25.332498 C-0.56726465,24.9257096 -1,24.1743377 -1,23.3623473 L-1,8.63781792 C-1,7.82533466 -0.567409549,7.07453951 0.13562416,6.66746721 L12.8636403,-0.695557449 C13.5667275,-1.10148085 14.4332725,-1.10148085 15.1371226,-0.695116592 L27.863434,6.66730391 C28.5670118,7.07401009 29,7.82493224 29,8.63781792 L29,23.3623473 Z" id="Stroke-26" stroke-width="2"></path>
            </g>
        </g>
        <g id="dtpr_icons-/-purpose-/-ic_white-/-emergency" transform="translate(6.000000, 6.000000)">
            <rect id="Container" x="0" y="0" width="24" height="24"></rect>
            <path d="M21.0020817,14.335 L16.9768441,12 L21.0020817,9.665 C21.4788594,9.389 21.6411031,8.777 21.3663836,8.299 L19.873343,5.701 C19.5986235,5.223 18.9904582,5.059 18.5136806,5.335 L14.4884429,7.67 L14.4884429,3 C14.4884429,2.448 14.0425215,2 13.4930825,2 L10.5070012,2 C9.95756219,2 9.51164071,2.448 9.51164071,3 L9.51164071,7.67 L5.48640306,5.335 C5.01062077,5.059 4.40146018,5.223 4.12574533,5.701 L2.63270466,8.299 C2.35898054,8.777 2.52221965,9.389 2.99800195,9.665 L7.02323959,12 L2.99800195,14.335 C2.52221965,14.611 2.35898054,15.223 2.63270466,15.701 L4.12574533,18.299 C4.40146018,18.777 5.01062077,18.941 5.48640306,18.665 L9.51164071,16.33 L9.51164071,21 C9.51164071,21.552 9.95756219,22 10.5070012,22 L13.4930825,22 C14.0425215,22 14.4884429,21.552 14.4884429,21 L14.4884429,16.33 L18.5136806,18.665 C18.9904582,18.941 19.5986235,18.777 19.873343,18.299 L21.3663836,15.701 C21.6411031,15.223 21.4788594,14.611 21.0020817,14.335" id="Fill-1" fill="#FFFFFF" fill-rule="evenodd"></path>
        </g>
    </g>
</svg>