<?xml version="1.0" encoding="UTF-8"?>
<svg width="36px" height="36px" viewBox="0 0 36 36" version="1.1" xmlns="http://www.w3.org/2000/svg" xmlns:xlink="http://www.w3.org/1999/xlink">
    <!-- Generator: Sketch 54 (76480) - https://sketchapp.com -->
    <title>dtpr_icons / purpose / planning</title>
    <desc>Created with Sketch.</desc>
    <defs>
        <polygon id="path-1" points="0 0.0515 16.9484497 0.0515 16.9484497 16.9995 0 16.9995"></polygon>
        <polygon id="path-3" points="0.8816 0.8292 10.915 0.8292 10.915 10.861642 0.8816 10.861642"></polygon>
    </defs>
    <g id="dtpr_icons-/-purpose-/-planning" stroke="none" stroke-width="1" fill="none" fill-rule="evenodd">
        <g id="dtpr_icons-/-container-/-black-/-hexagon" fill="#000000" stroke="#000000">
            <g id="Group-6" transform="translate(4.000000, 2.000000)">
                <path d="M29,23.3623473 C29,24.1747401 28.5668669,24.9262388 27.8637022,25.3327062 L15.1374487,32.6944323 C14.4338084,33.1018559 13.5661916,33.1018559 12.8629306,32.6946518 L0.135278613,25.332498 C-0.56726465,24.9257096 -1,24.1743377 -1,23.3623473 L-1,8.63781792 C-1,7.82533466 -0.567409549,7.07453951 0.13562416,6.66746721 L12.8636403,-0.695557449 C13.5667275,-1.10148085 14.4332725,-1.10148085 15.1371226,-0.695116592 L27.863434,6.66730391 C28.5670118,7.07401009 29,7.82493224 29,8.63781792 L29,23.3623473 Z" id="Stroke-26" stroke-width="2"></path>
            </g>
        </g>
        <g id="dtpr_icons-/-purpose-/-ic_white-/-planning" transform="translate(6.000000, 6.000000)">
            <rect id="Container" x="0" y="0" width="24" height="24"></rect>
            <g id="Group-9" stroke-width="1" fill-rule="evenodd" transform="translate(3.000000, 3.000000)">
                <g id="Group-3" transform="translate(0.000000, 0.757200)">
                    <mask id="mask-2" fill="white">
                        <use xlink:href="#path-1"></use>
                    </mask>
                    <g id="Clip-2"></g>
                    <path d="M1.0059,0.0515 C0.4929,0.0515 -0.0001,0.4495 -0.0001,1.0515 L-0.0001,16.0015 C-0.0001,16.5525 0.4469,16.9995 0.9989,16.9995 L15.9479,16.9995 C16.8379,16.9995 17.2829,15.9245 16.6539,15.2955 L1.7049,0.3455 C1.5019,0.1425 1.2519,0.0515 1.0059,0.0515 M3.4949,7.0795 L9.9209,13.5045 L3.4949,13.5045 L3.4949,7.0795" id="Fill-1" fill="#FFFFFF" mask="url(#mask-2)"></path>
                </g>
                <g id="Group-6" transform="translate(7.000000, 0.757200)">
                    <mask id="mask-4" fill="white">
                        <use xlink:href="#path-3"></use>
                    </mask>
                    <g id="Clip-5"></g>
                    <path d="M9.9336,7.7952 L10.9096,10.7222 C10.9366,10.8052 10.8586,10.8832 10.7756,10.8562 L7.8486,9.8802 C7.6926,9.8282 7.5506,9.7412 7.4346,9.6252 L0.8816,3.0722 L3.1246,0.8292 L9.6776,7.3822 C9.7936,7.4982 9.8816,7.6392 9.9336,7.7952" id="Fill-4" fill="#FFFFFF" mask="url(#mask-4)"></path>
                </g>
                <path d="M6.7607,0.4645 L6.7607,0.4645 C6.1417,1.0845 6.1417,2.0885 6.7607,2.7075 L7.1347,3.0815 L9.3777,0.8385 L9.0037,0.4645 C8.3837,-0.1545 7.3797,-0.1545 6.7607,0.4645" id="Fill-7" fill="#FFFFFF"></path>
            </g>
        </g>
    </g>
</svg>