<?xml version="1.0" encoding="UTF-8"?>
<svg width="36px" height="36px" viewBox="0 0 36 36" version="1.1" xmlns="http://www.w3.org/2000/svg" xmlns:xlink="http://www.w3.org/1999/xlink">
    <!-- Generator: Sketch 54 (76480) - https://sketchapp.com -->
    <title>dtpr_icons / access / 3rdparty</title>
    <desc>Created with Sketch.</desc>
    <g id="dtpr_icons-/-access-/-3rdparty" stroke="none" stroke-width="1" fill="none" fill-rule="evenodd">
        <g id="Group-4" transform="translate(7.000000, 6.000000)" fill="#000000">
            <path d="M3.11624082,16.5810492 C3.40053866,16.8573386 3.88104204,16.6611331 3.88104204,16.2607136 L3.88104204,14.626001 C4.76797121,14.5379088 5.6308752,14.3186791 6.45573935,13.9703141 C7.51584994,13.5218443 8.46684622,12.8801721 9.28370197,12.0633163 C9.58301554,11.7640028 9.85830394,11.4466703 10.1105682,11.11232 L10.1105682,20.1868267 L8.59097626,20.1868267 L8.51589761,20.1868267 C8.11547812,20.1868267 7.91927257,20.6673301 8.20457146,20.9426185 L10.6871723,23.4342287 C10.8653589,23.6124154 11.1406473,23.6124154 11.318834,23.4342287 L13.8014348,20.9516279 C14.0777243,20.6673301 13.8815187,20.1868267 13.4810992,20.1868267 L11.8894318,20.1868267 L11.8894318,11.11232 C12.140695,11.4466703 12.4169845,11.7640028 12.716298,12.0633163 C13.5331538,12.8801721 14.4851511,13.5218443 15.5452617,13.9703141 C16.3691248,14.3186791 17.2310277,14.5379088 18.118958,14.626001 L18.118958,16.2607136 C18.118958,16.6611331 18.5984603,16.8573386 18.8837592,16.5810492 L21.36636,14.0984484 C21.5445467,13.9202617 21.5445467,13.6449733 21.36636,13.4667866 L18.8747497,10.9841858 C18.5984603,10.699888 18.118958,10.8950925 18.118958,11.295512 L18.118958,11.3705906 L18.118958,12.8351249 C17.4712794,12.755041 16.8406187,12.5858638 16.2379874,12.3305963 C15.3900992,11.9722209 14.6283011,11.4586829 13.9746163,10.8049981 C13.3209315,10.1513133 12.8073935,9.38951521 12.449018,8.54162694 C12.07863,7.66470827 11.8894318,6.73273191 11.8894318,5.77172514 L11.8894318,1.32206359 C11.8894318,0.83054867 11.4910144,0.43213128 10.9994995,0.43213128 C10.5089856,0.43213128 10.1105682,0.83054867 10.1105682,1.32206359 L10.1105682,5.77172514 C10.1105682,6.73273191 9.92237106,7.66470827 9.55098198,8.54162694 C9.19260654,9.38951521 8.67906855,10.1513133 8.02538374,10.8049981 C7.37069787,11.4586829 6.60990085,11.9722209 5.76201258,12.3305963 C5.15838021,12.5858638 4.52872056,12.755041 3.88104204,12.8351249 L3.88104204,11.3705906 L3.88104204,11.295512 C3.88104204,10.8950925 3.40053866,10.699888 3.12525026,10.9841858 L0.633640004,13.4667866 C0.455453332,13.6449733 0.455453332,13.9202617 0.633640004,14.0984484 L3.11624082,16.5810492 Z" id="Fill-2"></path>
        </g>
        <g id="dtpr_icons-/-container-/-square" stroke="#000000" stroke-width="2">
            <rect id="Rectangle" x="3" y="3" width="30" height="30" rx="2"></rect>
        </g>
    </g>
</svg>