<?xml version="1.0" encoding="UTF-8"?>
<svg width="36px" height="36px" viewBox="0 0 36 36" version="1.1" xmlns="http://www.w3.org/2000/svg" xmlns:xlink="http://www.w3.org/1999/xlink">
    <!-- Generator: Sketch 54 (76480) - https://sketchapp.com -->
    <title>dtpr_icons / access / download</title>
    <desc>Created with Sketch.</desc>
    <g id="dtpr_icons-/-access-/-download" stroke="none" stroke-width="1" fill="none" fill-rule="evenodd">
        <g id="Group-9" transform="translate(10.000000, 6.000000)" fill="#000000">
            <g id="Group-8">
                <path d="M7.6875,15.4224 C7.8655,15.6004 8.1405,15.6004 8.3185,15.4224 L10.7985,12.9424 C11.0745,12.6574 10.8785,12.1774 10.4785,12.1774 L8.8885,12.1774 L8.8885,1.3334 C8.8885,0.8424 8.4905,0.4444 7.9995,0.4444 C7.5095,0.4444 7.1115,0.8424 7.1115,1.3334 L7.1115,12.1774 L5.5185,12.1774 C5.1185,12.1774 4.9225,12.6574 5.2075,12.9334 L7.6875,15.4224 Z" id="Fill-2"></path>
                <path d="M0.8887,19.1113 L15.1117,19.1113 C15.6017,19.1113 15.9997,18.7133 15.9997,18.2223 C15.9997,17.7313 15.6017,17.3333 15.1117,17.3333 L0.8887,17.3333 C0.3977,17.3333 -0.0003,17.7313 -0.0003,18.2223 C-0.0003,18.7133 0.3977,19.1113 0.8887,19.1113" id="Fill-4"></path>
                <path d="M8,20.8887 L8,20.8887 C7.509,20.8887 7.111,21.2867 7.111,21.7777 L7.111,22.6667 C7.111,23.1577 7.509,23.5557 8,23.5557 C8.491,23.5557 8.889,23.1577 8.889,22.6667 L8.889,21.7777 C8.889,21.2867 8.491,20.8887 8,20.8887" id="Fill-6"></path>
            </g>
        </g>
        <g id="dtpr_icons-/-container-/-square" stroke="#000000" stroke-width="2">
            <rect id="Rectangle" x="3" y="3" width="30" height="30" rx="2"></rect>
        </g>
    </g>
</svg>