<?xml version="1.0" encoding="UTF-8"?>
<svg width="36px" height="36px" viewBox="0 0 36 36" version="1.1" xmlns="http://www.w3.org/2000/svg" xmlns:xlink="http://www.w3.org/1999/xlink">
    <!-- Generator: Sketch 54 (76480) - https://sketchapp.com -->
    <title>dtpr_icons / access / no</title>
    <desc>Created with Sketch.</desc>
    <g id="dtpr_icons-/-access-/-no" stroke="none" stroke-width="1" fill="none" fill-rule="evenodd">
        <g id="Group-4" transform="translate(15.000000, 6.000000)" fill="#000000">
            <path d="M2.67986078,23.7056856 C2.86227773,23.8881025 3.14410168,23.8881025 3.32651863,23.7056856 L5.86805819,21.164146 C6.15090695,20.8720739 5.95004334,20.3801631 5.5401176,20.3801631 L3.9106628,20.3801631 L3.9106628,1.06856164 C3.9106628,0.5653778 3.5027867,0.157501692 2.99960286,0.157501692 C2.49744383,0.157501692 2.08956772,0.5653778 2.08956772,1.06856164 L2.08956772,20.3801631 L0.533899555,20.3801631 L0.457038479,20.3801631 C0.0471127431,20.3801631 -0.153750867,20.8720739 0.138321219,21.1549227 L2.67986078,23.7056856 Z" id="Fill-2"></path>
        </g>
        <g id="dtpr_icons-/-container-/-square_d_cross">
            <rect id="Rectangle" fill="#000000" fill-rule="evenodd" transform="translate(18.000000, 18.000000) rotate(-30.000000) translate(-18.000000, -18.000000) " x="1" y="17" width="34" height="2"></rect>
            <rect id="Rectangle" fill="#FFFFFF" fill-rule="evenodd" transform="translate(17.000000, 16.267949) rotate(-30.000000) translate(-17.000000, -16.267949) " x="1" y="15.2679492" width="32" height="2"></rect>
            <rect id="Rectangle" stroke="#000000" stroke-width="2" x="3" y="3" width="30" height="30" rx="2"></rect>
        </g>
    </g>
</svg>