<?xml version="1.0" encoding="UTF-8"?>
<svg width="36px" height="36px" viewBox="0 0 36 36" version="1.1" xmlns="http://www.w3.org/2000/svg" xmlns:xlink="http://www.w3.org/1999/xlink">
    <!-- Generator: Sketch 54 (76480) - https://sketchapp.com -->
    <title>dtpr_icons / access / resale</title>
    <desc>Created with Sketch.</desc>
    <g id="dtpr_icons-/-access-/-resale" stroke="none" stroke-width="1" fill="none" fill-rule="evenodd">
        <g id="Group-4" transform="translate(14.000000, 6.000000)" fill="#000000">
            <path d="M4,15.892882 C3.45492576,15.892882 2.94214995,15.6806353 2.55672217,15.2948999 C2.39153884,15.1300242 2.25834632,14.9417706 2.15991305,14.7378291 C2.02825855,14.4646768 1.95874005,14.1635325 1.95874005,13.8516221 L0.25,13.8516221 C0.25,14.357323 0.349048478,14.8485666 0.544992207,15.3115105 C0.733861045,15.7584591 1.00424493,16.1592671 1.34814617,16.5031683 C1.69235502,16.8476848 2.09347059,17.1177611 2.53980395,17.3066299 C2.7369781,17.3899906 2.93938151,17.4558178 3.14547617,17.503804 L3.14547617,19.8609733 L1.68712575,19.8609733 L1.61483882,19.8609733 C1.23033385,19.8609733 1.04238783,20.3223792 1.31554015,20.5872262 L3.69947092,22.9797699 C3.87049873,23.1507977 4.13534575,23.1507977 4.30637355,22.9797699 L6.69030432,20.5958391 C6.95515134,20.3223792 6.76720532,19.8609733 6.38270035,19.8609733 L4.85452383,19.8609733 L4.85452383,17.503804 C5.06061849,17.4558178 5.2630219,17.3899906 5.46019605,17.3066299 C5.90652941,17.1177611 6.30764498,16.8476848 6.65185383,16.5031683 C6.99575507,16.1592671 7.26613895,15.7584591 7.45500779,15.3115105 C7.65095152,14.8485666 7.75,14.357323 7.75,13.8516221 C7.75,13.3456136 7.65095152,12.85437 7.45500779,12.3917337 C7.26613895,11.9450927 6.99575507,11.5439771 6.65185383,11.1997683 C6.30764498,10.855867 5.90652941,10.5854831 5.46019605,10.3963067 C4.99725207,10.2006706 4.50600853,10.1013145 4,10.1013145 C3.45492576,10.1013145 2.94214995,9.88906775 2.55672217,9.50363998 C2.17098679,9.1179046 1.95874005,8.60543639 1.95874005,8.06005455 C1.95874005,7.51498031 2.17098679,7.0022045 2.55672217,6.61677672 C2.94214995,6.23104134 3.45492576,6.0187946 4,6.0187946 C4.54507424,6.0187946 5.05785005,6.23104134 5.44327783,6.61677672 C5.82901321,7.0022045 6.04125995,7.51498031 6.04125995,8.06005455 L7.75,8.06005455 C7.75,7.55435362 7.65095152,7.06311008 7.45500779,6.60016611 C7.26613895,6.15352514 6.99575507,5.75240956 6.65185383,5.40850833 C6.30764498,5.06429948 5.90652941,4.79391559 5.46019605,4.60504676 C5.2630219,4.52168608 5.06061849,4.45585883 4.85452383,4.40787261 L4.85452383,1.74648306 C4.85452383,1.27461857 4.47186449,0.891959232 4,0.891959232 C3.52813551,0.891959232 3.14547617,1.27461857 3.14547617,1.74648306 L3.14547617,4.40787261 C2.93938151,4.45585883 2.7369781,4.52168608 2.53980395,4.60504676 C2.09347059,4.79391559 1.69235502,5.06429948 1.34814617,5.40850833 C1.00424493,5.75240956 0.733861045,6.15352514 0.544992207,6.60016611 C0.349048478,7.06311008 0.25,7.55435362 0.25,8.06005455 C0.25,8.56606308 0.349048478,9.05730662 0.544992207,9.52025059 C0.733861045,9.96689156 1.00424493,10.3676995 1.34814617,10.7119084 C1.69235502,11.0561172 2.09347059,11.3261935 2.53980395,11.5153699 C3.00274793,11.7110061 3.49399147,11.8103622 4,11.8103622 C4.54507424,11.8103622 5.05785005,12.0226089 5.44327783,12.4080367 C5.82901321,12.793772 6.04125995,13.3062403 6.04125995,13.8516221 C6.04125995,14.3966963 5.82901321,14.9094722 5.44327783,15.2948999 C5.05785005,15.6806353 4.54507424,15.892882 4,15.892882" id="Fill-2"></path>
        </g>
        <g id="dtpr_icons-/-container-/-square" stroke="#000000" stroke-width="2">
            <rect id="Rectangle" x="3" y="3" width="30" height="30" rx="2"></rect>
        </g>
    </g>
</svg>