<?xml version="1.0" encoding="UTF-8"?>
<svg width="36px" height="36px" viewBox="0 0 36 36" version="1.1" xmlns="http://www.w3.org/2000/svg" xmlns:xlink="http://www.w3.org/1999/xlink">
    <!-- Generator: Sketch 54 (76480) - https://sketchapp.com -->
    <title>dtpr_icons / access / yes</title>
    <desc>Created with Sketch.</desc>
    <g id="dtpr_icons-/-access-/-yes" stroke="none" stroke-width="1" fill="none" fill-rule="evenodd">
        <g id="Group-4" transform="translate(15.000000, 6.000000)" fill="#000000">
            <path d="M2.11056821,20.1868267 L0.590976261,20.1868267 L0.515897607,20.1868267 C0.11547812,20.1868267 -0.0807274287,20.6673301 0.204571456,20.9426185 L2.68717228,23.4342287 C2.86535895,23.6124154 3.14064734,23.6124154 3.31883402,23.4342287 L5.80143484,20.9516279 C6.07772428,20.6673301 5.88151873,20.1868267 5.48109925,20.1868267 L3.88943179,20.1868267 L3.88943179,11.11232 C4.14069501,11.4466703 4.41698446,11.7640028 4.71629803,12.0633163 C5.53315378,12.8801721 6.48515111,13.5218443 7.5452617,13.9703141 C8.3691248,14.3186791 9.23102774,14.5379088 10.118958,14.626001 L10.118958,16.2607136 C10.118958,16.6611331 10.5984603,16.8573386 10.8837592,16.5810492 L13.36636,14.0984484 C13.5445467,13.9202617 13.5445467,13.6449733 13.36636,13.4667866 L10.8747497,10.9841858 C10.5984603,10.699888 10.118958,10.8950925 10.118958,11.295512 L10.118958,11.3705906 L10.118958,12.8351249 C9.47127944,12.755041 8.84061874,12.5858638 8.23798742,12.3305963 C7.39009915,11.9722209 6.62830108,11.4586829 5.97461626,10.8049981 C5.32093145,10.1513133 4.80739346,9.38951521 4.44901802,8.54162694 C4.07862999,7.66470827 3.88943179,6.73273191 3.88943179,5.77172514 L3.88943179,1.32206359 C3.88943179,0.83054867 3.4910144,0.43213128 2.99949948,0.43213128 C2.5089856,0.43213128 2.11056821,0.83054867 2.11056821,1.32206359 L2.11056821,20.1868267 Z" id="Fill-2"></path>
        </g>
        <g id="dtpr_icons-/-container-/-square" stroke="#000000" stroke-width="2">
            <rect id="Rectangle" x="3" y="3" width="30" height="30" rx="2"></rect>
        </g>
    </g>
</svg>