<?xml version="1.0" encoding="UTF-8"?>
<svg width="24px" height="24px" viewBox="0 0 24 24" version="1.1" xmlns="http://www.w3.org/2000/svg" xmlns:xlink="http://www.w3.org/1999/xlink">
    <!-- Generator: Sketch 53.2 (72643) - https://sketchapp.com -->
    <title>feedback_sad</title>
    <desc>Created with Sketch.</desc>
    <g id="feedback_sad" stroke="none" stroke-width="1" fill="none" fill-rule="evenodd">
        <g id="ic_mood_bad">
            <g id="Icon-24px">
                <polygon id="Shape" points="0 0 24 0 24 24 0 24"></polygon>
                <path d="M11.99,2 C17.52,2 22,6.48 22,12 C22,17.52 17.52,22 11.99,22 C6.47,22 2,17.52 2,12 C2,6.48 6.47,2 11.99,2 Z M12,20 C16.42,20 20,16.42 20,12 C20,7.58 16.42,4 12,4 C7.58,4 4,7.58 4,12 C4,16.42 7.58,20 12,20 Z M15.5,11 C14.67,11 14,10.33 14,9.5 C14,8.67 14.67,8 15.5,8 C16.33,8 17,8.67 17,9.5 C17,10.33 16.33,11 15.5,11 Z M8.5,11 C7.67,11 7,10.33 7,9.5 C7,8.67 7.67,8 8.5,8 C9.33,8 10,8.67 10,9.5 C10,10.33 9.33,11 8.5,11 Z M15.7449845,15.3329182 C16.1134036,15.7443617 16.0785254,16.3765654 15.6670818,16.7449845 C15.2556383,17.1134036 14.6234346,17.0785254 14.2550155,16.6670818 C13.5398903,15.8684434 12.8030035,15.5 12,15.5 C11.1969965,15.5 10.4601097,15.8684434 9.74498447,16.6670818 C9.37656535,17.0785254 8.74436175,17.1134036 8.33291819,16.7449845 C7.92147463,16.3765654 7.88659642,15.7443617 8.25501553,15.3329182 C9.33075134,14.1315566 10.5938645,13.5 12,13.5 C13.4061355,13.5 14.6692487,14.1315566 15.7449845,15.3329182 Z" id="Combined-Shape" fill="#D00255"></path>
            </g>
        </g>
    </g>
</svg>