<?xml version="1.0" encoding="UTF-8"?>
<svg width="36px" height="36px" viewBox="0 0 36 36" version="1.1" xmlns="http://www.w3.org/2000/svg" xmlns:xlink="http://www.w3.org/1999/xlink">
    <!-- Generator: Sketch 53.2 (72643) - https://sketchapp.com -->
    <title>dtpr_icons / process / aggregate</title>
    <desc>Created with Sketch.</desc>
    <g id="dtpr_icons-/-process-/-aggregate" stroke="none" stroke-width="1" fill="none" fill-rule="evenodd">
        <g id="Group-28" transform="translate(10.000000, 5.000000)" fill="#000000">
            <g id="Group" transform="translate(0.000000, 5.000000)">
                <path d="M12.8887,3.55271368e-15 C11.1707,3.55271368e-15 9.7777,1.393 9.7777,3.111 C9.7777,4.829 11.1707,6.222 12.8887,6.222 C14.6077,6.222 15.9997,4.829 15.9997,3.111 C15.9997,1.393 14.6077,3.55271368e-15 12.8887,3.55271368e-15 M12.8887,1.778 C13.2447,1.778 13.5797,1.917 13.8317,2.168 C14.0837,2.42 14.2227,2.755 14.2227,3.111 C14.2227,3.467 14.0837,3.802 13.8317,4.054 C13.5797,4.306 13.2447,4.444 12.8887,4.444 C12.5337,4.444 12.1987,4.306 11.9467,4.054 C11.6947,3.802 11.5557,3.467 11.5557,3.111 C11.5557,2.755 11.6947,2.42 11.9467,2.168 C12.1987,1.917 12.5337,1.778 12.8887,1.778" id="Fill-4"></path>
                <path d="M3.1113,3.55271368e-15 C1.3933,3.55271368e-15 0.0003,1.393 0.0003,3.111 C0.0003,4.829 1.3933,6.222 3.1113,6.222 C4.8293,6.222 6.2223,4.829 6.2223,3.111 C6.2223,1.393 4.8293,3.55271368e-15 3.1113,3.55271368e-15 M3.1113,1.778 C3.4673,1.778 3.8023,1.917 4.0533,2.168 C4.3053,2.42 4.4443,2.755 4.4443,3.111 C4.4443,3.467 4.3053,3.802 4.0533,4.054 C3.8023,4.306 3.4673,4.444 3.1113,4.444 C2.7553,4.444 2.4203,4.306 2.1683,4.054 C1.9163,3.802 1.7783,3.467 1.7783,3.111 C1.7783,2.755 1.9163,2.42 2.1683,2.168 C2.4203,1.917 2.7553,1.778 3.1113,1.778" id="Fill-6"></path>
                <path d="M12.8887,9.7778 C11.1707,9.7778 9.7777,11.1708 9.7777,12.8888 C9.7777,14.6068 11.1707,15.9998 12.8887,15.9998 C14.6077,15.9998 15.9997,14.6068 15.9997,12.8888 C15.9997,11.1708 14.6077,9.7778 12.8887,9.7778 M12.8887,11.5558 C13.2447,11.5558 13.5797,11.6948 13.8317,11.9458 C14.0837,12.1978 14.2227,12.5328 14.2227,12.8888 C14.2227,13.2448 14.0837,13.5798 13.8317,13.8318 C13.5797,14.0838 13.2447,14.2218 12.8887,14.2218 C12.5337,14.2218 12.1987,14.0838 11.9467,13.8318 C11.6947,13.5798 11.5557,13.2448 11.5557,12.8888 C11.5557,12.5328 11.6947,12.1978 11.9467,11.9458 C12.1987,11.6948 12.5337,11.5558 12.8887,11.5558" id="Fill-8"></path>
                <path d="M3.1113,9.7778 C1.3933,9.7778 0.0003,11.1708 0.0003,12.8888 C0.0003,14.6068 1.3933,15.9998 3.1113,15.9998 C4.8293,15.9998 6.2223,14.6068 6.2223,12.8888 C6.2223,11.1708 4.8293,9.7778 3.1113,9.7778 M3.1113,11.5558 C3.4673,11.5558 3.8023,11.6948 4.0533,11.9458 C4.3053,12.1978 4.4443,12.5328 4.4443,12.8888 C4.4443,13.2448 4.3053,13.5798 4.0533,13.8318 C3.8023,14.0838 3.4673,14.2218 3.1113,14.2218 C2.7553,14.2218 2.4203,14.0838 2.1683,13.8318 C1.9163,13.5798 1.7783,13.2448 1.7783,12.8888 C1.7783,12.5328 1.9163,12.1978 2.1683,11.9458 C2.4203,11.6948 2.7553,11.5558 3.1113,11.5558" id="Fill-10"></path>
                <path d="M8,6.2222 C7.018,6.2222 6.222,7.0182 6.222,8.0002 C6.222,8.9822 7.018,9.7782 8,9.7782 C8.982,9.7782 9.777,8.9822 9.777,8.0002 C9.777,7.0182 8.982,6.2222 8,6.2222" id="Fill-12"></path>
                <polygon id="Fill-14" points="6.8687 7.8745 3.8157 10.9275 5.0727 12.1845 8.1257 9.1315"></polygon>
                <polygon id="Fill-16" points="10.9268 3.8159 7.8748 6.8689 9.1318 8.1259 12.1848 5.0729"></polygon>
                <polygon id="Fill-18" points="9.1318 7.8745 7.8748 9.1315 10.9268 12.1845 12.1848 10.9275"></polygon>
                <polygon id="Fill-20" points="5.0728 3.8159 3.8158 5.0729 6.8688 8.1259 8.1258 6.8689"></polygon>
            </g>
            <path d="M7.1099,22.0669 L5.5189,22.0669 C5.1189,22.0669 4.9229,22.5469 5.2079,22.8219 L7.6879,25.3109 C7.8649,25.4889 8.1409,25.4889 8.3189,25.3109 L10.7989,22.8309 C11.0739,22.5469 10.8789,22.0669 10.4789,22.0669 L8.8879,22.0669" id="Fill-22"></path>
            <path d="M7.111,20.1112 L7.111,21.8892 C7.111,22.3802 7.509,22.7782 8,22.7782 C8.491,22.7782 8.889,22.3802 8.889,21.8892 L8.889,20.1112 C8.889,19.6202 8.491,19.2222 8,19.2222 C7.509,19.2222 7.111,19.6202 7.111,20.1112 Z" id="Fill-24"></path>
            <path d="M7.111,1.4447 L7.111,5.8887 C7.111,6.3797 7.509,6.7777 8,6.7777 C8.491,6.7777 8.889,6.3797 8.889,5.8887 L8.889,1.4447 C8.889,0.9537 8.491,0.5557 8,0.5557 C7.509,0.5557 7.111,0.9537 7.111,1.4447 Z" id="Fill-26"></path>
        </g>
        <g id="dtpr_icons-/-container-/-circle" stroke="#000000" stroke-width="2">
            <rect id="Rectangle" x="2" y="2" width="32" height="32" rx="15"></rect>
        </g>
    </g>
</svg>