<?xml version="1.0" encoding="UTF-8"?>
<svg width="36px" height="36px" viewBox="0 0 36 36" version="1.1" xmlns="http://www.w3.org/2000/svg" xmlns:xlink="http://www.w3.org/1999/xlink">
    <!-- Generator: Sketch 54 (76480) - https://sketchapp.com -->
    <title>dtpr_icons / process / ai</title>
    <desc>Created with Sketch.</desc>
    <g id="dtpr_icons-/-process-/-ai" stroke="none" stroke-width="1" fill="none" fill-rule="evenodd">
        <g id="Group-12" transform="translate(9.000000, 5.000000)" fill="#000000">
            <g id="Group">
                <path d="M6.396,9.127 L7.687,12.677 L4.783,12.677 L6.396,9.127 Z M8.333,14.455 L9.531,17.748 C9.662,18.109 10.003,18.334 10.366,18.334 C10.467,18.334 10.57,18.316 10.67,18.28 C11.132,18.112 11.369,17.602 11.202,17.141 L7.323,6.474 C7.2,6.135 6.883,5.904 6.522,5.89 C6.161,5.876 5.828,6.081 5.678,6.41 L0.83,17.077 C0.627,17.523 0.824,18.05 1.271,18.253 C1.718,18.457 2.245,18.259 2.448,17.813 L3.975,14.455 L8.333,14.455 Z" id="Fill-4"></path>
                <path d="M14.333,5.8887 C13.843,5.8887 13.444,6.2867 13.444,6.7777 L13.444,17.4447 C13.444,17.9357 13.843,18.3337 14.333,18.3337 C14.824,18.3337 15.223,17.9357 15.223,17.4447 L15.223,6.7777 C15.223,6.2867 14.824,5.8887 14.333,5.8887" id="Fill-6"></path>
                <path d="M11.4785,22.0669 L9.8885,22.0669 L9.8885,20.1109 C9.8885,19.6199 9.4905,19.2219 8.9995,19.2219 C8.5095,19.2219 8.1115,19.6199 8.1115,20.1109 L8.1115,22.0669 L8.1095,22.0669 L6.5185,22.0669 C6.1185,22.0669 5.9225,22.5469 6.2075,22.8219 L8.6875,25.3109 C8.8655,25.4889 9.1405,25.4889 9.3185,25.3109 L11.7985,22.8309 C12.0745,22.5469 11.8785,22.0669 11.4785,22.0669" id="Fill-8"></path>
                <path d="M9,5 L9,5 C9.491,5 9.889,4.602 9.889,4.111 L9.889,1.444 C9.889,0.954 9.491,0.556 9,0.556 C8.509,0.556 8.111,0.954 8.111,1.444 L8.111,4.111 C8.111,4.602 8.509,5 9,5" id="Fill-10"></path>
            </g>
        </g>
        <g id="dtpr_icons-/-container-/-circle" stroke="#000000" stroke-width="2">
            <rect id="Rectangle" x="2" y="2" width="32" height="32" rx="15"></rect>
        </g>
    </g>
</svg>