<?xml version="1.0" encoding="UTF-8"?>
<svg width="36px" height="36px" viewBox="0 0 36 36" version="1.1" xmlns="http://www.w3.org/2000/svg" xmlns:xlink="http://www.w3.org/1999/xlink">
    <!-- Generator: Sketch 54 (76480) - https://sketchapp.com -->
    <title>dtpr_icons / process / deidentified</title>
    <desc>Created with Sketch.</desc>
    <g id="dtpr_icons-/-process-/-deidentified" stroke="none" stroke-width="1" fill="none" fill-rule="evenodd">
        <g id="Group-25" transform="translate(13.000000, 6.000000)" fill="#000000">
            <g id="Group-24" transform="translate(0.016841, 0.038735)">
                <path d="M5.86886517,21.9258977 C5.86886517,22.4152439 5.47220575,22.8119033 4.98285958,22.8119033 C4.49451004,22.8119033 4.09785062,22.4152439 4.09785062,21.9258977 C4.09785062,21.4365515 4.49451004,21.0398921 4.98285958,21.0398921 C5.47220575,21.0398921 5.86886517,21.4365515 5.86886517,21.9258977" id="Fill-4"></path>
                <path d="M7.64117535,20.1540858 C7.64117535,20.643432 7.24451592,21.0400914 6.75417312,21.0400914 C6.26582358,21.0400914 5.86916416,20.643432 5.86916416,20.1540858 C5.86916416,19.6647397 6.26582358,19.2680802 6.75417312,19.2680802 C7.24451592,19.2680802 7.64117535,19.6647397 7.64117535,20.1540858" id="Fill-6"></path>
                <path d="M4.09745196,20.1540858 C4.09745196,20.643432 3.70079254,21.0400914 3.21144637,21.0400914 C2.7221002,21.0400914 2.32544078,20.643432 2.32544078,20.1540858 C2.32544078,19.6647397 2.7221002,19.2680802 3.21144637,19.2680802 C3.70079254,19.2680802 4.09745196,19.6647397 4.09745196,20.1540858" id="Fill-8"></path>
                <path d="M9.41248889,18.3821743 C9.41248889,18.8715205 9.0168261,19.2681799 8.5264833,19.2681799 C8.03713713,19.2681799 7.64147434,18.8715205 7.64147434,18.3821743 C7.64147434,17.8928281 8.03713713,17.4961687 8.5264833,17.4961687 C9.0168261,17.4961687 9.41248889,17.8928281 9.41248889,18.3821743" id="Fill-10"></path>
                <path d="M2.3256401,18.3821743 C2.3256401,18.8715205 1.92898068,19.2681799 1.43963451,19.2681799 C0.950288339,19.2681799 0.553628917,18.8715205 0.553628917,18.3821743 C0.553628917,17.8928281 0.950288339,17.4961687 1.43963451,17.4961687 C1.92898068,17.4961687 2.3256401,17.8928281 2.3256401,18.3821743" id="Fill-12"></path>
                <path d="M5.86886517,13.0671374 C5.86886517,13.5564836 5.47220575,13.953143 4.98285958,13.953143 C4.49451004,13.953143 4.09785062,13.5564836 4.09785062,13.0671374 C4.09785062,12.5777912 4.49451004,12.1811318 4.98285958,12.1811318 C5.47220575,12.1811318 5.86886517,12.5777912 5.86886517,13.0671374" id="Fill-14"></path>
                <path d="M5.86886517,15.7246558 C5.86886517,16.214002 5.47220575,16.6106614 4.98285958,16.6106614 C4.49451004,16.6106614 4.09785062,16.214002 4.09785062,15.7246558 C4.09785062,15.2353097 4.49451004,14.8386503 4.98285958,14.8386503 C5.47220575,14.8386503 5.86886517,15.2353097 5.86886517,15.7246558" id="Fill-16"></path>
                <path d="M5.86886517,18.3821743 C5.86886517,18.8715205 5.47220575,19.2681799 4.98285958,19.2681799 C4.49451004,19.2681799 4.09785062,18.8715205 4.09785062,18.3821743 C4.09785062,17.8928281 4.49451004,17.4961687 4.98285958,17.4961687 C5.47220575,17.4961687 5.86886517,17.8928281 5.86886517,18.3821743" id="Fill-18"></path>
                <path d="M4.98315857,1.32900839 L4.98315857,10.1880677" id="Fill-20"></path>
                <path d="M4.98315857,11.073874 C4.4938124,11.073874 4.09715297,10.6772145 4.09715297,10.1878684 L4.09715297,1.32880906 C4.09715297,0.839462892 4.4938124,0.44280347 4.98315857,0.44280347 C5.47250474,0.44280347 5.86916416,0.839462892 5.86916416,1.32880906 L5.86916416,10.1878684 C5.86916416,10.6772145 5.47250474,11.073874 4.98315857,11.073874" id="Fill-22"></path>
            </g>
        </g>
        <g id="dtpr_icons-/-container-/-circle" stroke="#000000" stroke-width="2">
            <rect id="Rectangle" x="2" y="2" width="32" height="32" rx="15"></rect>
        </g>
    </g>
</svg>