<?xml version="1.0" encoding="UTF-8"?>
<svg width="36px" height="36px" viewBox="0 0 36 36" version="1.1" xmlns="http://www.w3.org/2000/svg" xmlns:xlink="http://www.w3.org/1999/xlink">
    <!-- Generator: Sketch 54 (76480) - https://sketchapp.com -->
    <title>dtpr_icons / process / encrypted</title>
    <desc>Created with Sketch.</desc>
    <g id="dtpr_icons-/-process-/-encrypted" stroke="none" stroke-width="1" fill="none" fill-rule="evenodd">
        <g id="Group-6" transform="translate(12.000000, 5.000000)" fill="#000000">
            <path d="M2.50032815,18.3373687 L9.50065629,18.3373687 L9.50065629,12.6492945 L2.50032815,12.6492945 L2.50032815,18.3373687 Z M3.95827864,9.8790901 C3.95827864,9.33371226 4.17091693,8.82082083 4.55583161,8.43492171 C4.94173073,8.0490226 5.45462216,7.83736874 6,7.83736874 C6.54537784,7.83736874 7.05826927,8.0490226 7.44416839,8.43492171 C7.82908307,8.82082083 8.04172136,9.33371226 8.04172136,9.8790901 L8.04172136,10.8999508 L3.95827864,10.8999508 L3.95827864,9.8790901 Z M10.3748359,10.8999508 L9.7920495,10.8999508 L9.7920495,9.8790901 C9.7920495,9.36718311 9.69163698,8.8710271 9.49376524,8.40243531 C9.30180011,7.95057894 9.02911119,7.54597553 8.6816051,7.197485 C8.33311457,6.8499789 7.92752672,6.57630555 7.47665479,6.38532486 C7.27878305,6.30164776 7.07598912,6.23569051 6.86925745,6.18745312 C6.8731952,6.15398228 6.87516407,6.12051144 6.87516407,6.0870406 L6.87516407,1.71122023 C6.87516407,1.22884633 6.48335833,0.837040596 6,0.837040596 C5.51664167,0.837040596 5.12483593,1.22884633 5.12483593,1.71122023 L5.12483593,6.0870406 C5.12483593,6.12051144 5.1268048,6.15398228 5.13074255,6.18745312 C4.92401088,6.23569051 4.72121695,6.30164776 4.52334521,6.38532486 C4.07247328,6.57630555 3.66688543,6.8499789 3.3183949,7.197485 C2.97088881,7.54597553 2.69721545,7.95057894 2.50623476,8.40243531 C2.30836302,8.8710271 2.2079505,9.36718311 2.2079505,9.8790901 L2.2079505,10.8999508 L1.62516407,10.8999508 C1.1408213,10.8999508 0.75,11.2917565 0.75,11.7751149 L0.75,19.2125328 C0.75,19.6958911 1.1408213,20.0876969 1.62516407,20.0876969 L5.12483593,20.0876969 L5.12483593,21.838025 L3.55761298,21.838025 C3.16383836,21.838025 2.97088881,22.3105546 3.25145322,22.582259 L5.6928558,25.0315371 C5.86710107,25.2067668 6.13880555,25.2067668 6.31403525,25.0315371 L8.75543784,22.5901345 C9.02615788,22.3105546 8.83419276,21.838025 8.44041815,21.838025 L6.87516407,21.838025 L6.87516407,20.0876969 L10.3748359,20.0876969 C10.8591787,20.0876969 11.25,19.6958911 11.25,19.2125328 L11.25,11.7751149 C11.25,11.2917565 10.8591787,10.8999508 10.3748359,10.8999508 L10.3748359,10.8999508 Z" id="Fill-4"></path>
        </g>
        <g id="dtpr_icons-/-container-/-circle" stroke="#000000" stroke-width="2">
            <rect id="Rectangle" x="2" y="2" width="32" height="32" rx="15"></rect>
        </g>
    </g>
</svg>