<?xml version="1.0" encoding="UTF-8"?>
<svg width="36px" height="36px" viewBox="0 0 36 36" version="1.1" xmlns="http://www.w3.org/2000/svg" xmlns:xlink="http://www.w3.org/1999/xlink">
    <!-- Generator: Sketch 54 (76480) - https://sketchapp.com -->
    <title>dtpr_icons / process / raw</title>
    <desc>Created with Sketch.</desc>
    <g id="dtpr_icons-/-process-/-raw" stroke="none" stroke-width="1" fill="none" fill-rule="evenodd">
        <g id="Group-46" transform="translate(10.000000, 5.000000)" fill="#000000">
            <g id="Group">
                <path d="M8.8887,18.3335 C8.8887,17.8425 8.4907,17.4445 7.9997,17.4445 C7.5097,17.4445 7.1117,17.8425 7.1117,18.3335 L7.1117,21.8885 L8.8887,21.8885 L8.8887,18.3335 Z" id="Fill-4"></path>
                <path d="M8,8.5557 L8,8.5557 C8.491,8.5557 8.889,8.1577 8.889,7.6667 L8.889,1.4447 C8.889,0.9537 8.491,0.5557 8,0.5557 C7.509,0.5557 7.111,0.9537 7.111,1.4447 L7.111,7.6667 C7.111,8.1577 7.509,8.5557 8,8.5557" id="Fill-6"></path>
                <path d="M10.4785,21.8887 L8.8875,21.8887 L7.1095,21.8887 L5.5185,21.8887 C5.1185,21.8887 4.9225,22.3687 5.2075,22.6447 L7.6875,25.1337 C7.8655,25.3107 8.1405,25.3107 8.3185,25.1337 L10.7985,22.6537 C11.0745,22.3687 10.8785,21.8887 10.4785,21.8887" id="Fill-8"></path>
                <path d="M8,15.6665 C8.491,15.6665 8.889,15.2685 8.889,14.7775 C8.889,14.2865 8.491,13.8885 8,13.8885 C7.509,13.8885 7.111,14.2865 7.111,14.7775 C7.111,15.2685 7.509,15.6665 8,15.6665" id="Fill-10"></path>
                <path d="M8,12.1113 C8.491,12.1113 8.889,11.7133 8.889,11.2223 C8.889,10.7313 8.491,10.3333 8,10.3333 C7.509,10.3333 7.111,10.7313 7.111,11.2223 C7.111,11.7133 7.509,12.1113 8,12.1113" id="Fill-12"></path>
                <path d="M11.5557,17.4443 C11.0647,17.4443 10.6667,17.8423 10.6667,18.3333 C10.6667,18.8243 11.0647,19.2223 11.5557,19.2223 C12.0467,19.2223 12.4447,18.8243 12.4447,18.3333 C12.4447,17.8423 12.0467,17.4443 11.5557,17.4443" id="Fill-14"></path>
                <path d="M11.5557,13.8887 C11.0647,13.8887 10.6667,14.2867 10.6667,14.7777 C10.6667,15.2687 11.0647,15.6667 11.5557,15.6667 C12.0467,15.6667 12.4447,15.2687 12.4447,14.7777 C12.4447,14.2867 12.0467,13.8887 11.5557,13.8887" id="Fill-16"></path>
                <path d="M11.5557,10.3335 C11.0647,10.3335 10.6667,10.7315 10.6667,11.2225 C10.6667,11.7135 11.0647,12.1115 11.5557,12.1115 C12.0467,12.1115 12.4447,11.7135 12.4447,11.2225 C12.4447,10.7315 12.0467,10.3335 11.5557,10.3335" id="Fill-18"></path>
                <path d="M11.5557,6.7778 C11.0647,6.7778 10.6667,7.1758 10.6667,7.6668 C10.6667,8.1578 11.0647,8.5558 11.5557,8.5558 C12.0467,8.5558 12.4447,8.1578 12.4447,7.6668 C12.4447,7.1758 12.0467,6.7778 11.5557,6.7778" id="Fill-20"></path>
                <path d="M0.8887,17.4443 C0.3977,17.4443 -0.0003,17.8423 -0.0003,18.3333 C-0.0003,18.8243 0.3977,19.2223 0.8887,19.2223 C1.3797,19.2223 1.7777,18.8243 1.7777,18.3333 C1.7777,17.8423 1.3797,17.4443 0.8887,17.4443" id="Fill-22"></path>
                <path d="M0.8887,13.8887 C0.3977,13.8887 -0.0003,14.2867 -0.0003,14.7777 C-0.0003,15.2687 0.3977,15.6667 0.8887,15.6667 C1.3797,15.6667 1.7777,15.2687 1.7777,14.7777 C1.7777,14.2867 1.3797,13.8887 0.8887,13.8887" id="Fill-24"></path>
                <path d="M0.8887,10.3335 C0.3977,10.3335 -0.0003,10.7315 -0.0003,11.2225 C-0.0003,11.7135 0.3977,12.1115 0.8887,12.1115 C1.3797,12.1115 1.7777,11.7135 1.7777,11.2225 C1.7777,10.7315 1.3797,10.3335 0.8887,10.3335" id="Fill-26"></path>
                <path d="M0.8887,6.7778 C0.3977,6.7778 -0.0003,7.1758 -0.0003,7.6668 C-0.0003,8.1578 0.3977,8.5558 0.8887,8.5558 C1.3797,8.5558 1.7777,8.1578 1.7777,7.6668 C1.7777,7.1758 1.3797,6.7778 0.8887,6.7778" id="Fill-28"></path>
                <path d="M5.3335,18.3335 C5.3335,17.8425 4.9355,17.4445 4.4445,17.4445 C3.9535,17.4445 3.5555,17.8425 3.5555,18.3335 C3.5555,18.8245 3.9535,19.2225 4.4445,19.2225 C4.9355,19.2225 5.3335,18.8245 5.3335,18.3335" id="Fill-30"></path>
                <path d="M4.4443,15.6665 C4.9353,15.6665 5.3333,15.2685 5.3333,14.7775 C5.3333,14.2865 4.9353,13.8885 4.4443,13.8885 C3.9533,13.8885 3.5553,14.2865 3.5553,14.7775 C3.5553,15.2685 3.9533,15.6665 4.4443,15.6665" id="Fill-32"></path>
                <path d="M4.4443,12.1113 C4.9353,12.1113 5.3333,11.7133 5.3333,11.2223 C5.3333,10.7313 4.9353,10.3333 4.4443,10.3333 C3.9533,10.3333 3.5553,10.7313 3.5553,11.2223 C3.5553,11.7133 3.9533,12.1113 4.4443,12.1113" id="Fill-34"></path>
                <path d="M4.4443,8.5557 C4.9353,8.5557 5.3333,8.1577 5.3333,7.6667 C5.3333,7.1757 4.9353,6.7777 4.4443,6.7777 C3.9533,6.7777 3.5553,7.1757 3.5553,7.6667 C3.5553,8.1577 3.9533,8.5557 4.4443,8.5557" id="Fill-36"></path>
                <path d="M15.1113,17.4443 C14.6203,17.4443 14.2223,17.8423 14.2223,18.3333 C14.2223,18.8243 14.6203,19.2223 15.1113,19.2223 C15.6013,19.2223 16.0003,18.8243 16.0003,18.3333 C16.0003,17.8423 15.6013,17.4443 15.1113,17.4443" id="Fill-38"></path>
                <path d="M15.1113,13.8887 C14.6203,13.8887 14.2223,14.2867 14.2223,14.7777 C14.2223,15.2687 14.6203,15.6667 15.1113,15.6667 C15.6013,15.6667 16.0003,15.2687 16.0003,14.7777 C16.0003,14.2867 15.6013,13.8887 15.1113,13.8887" id="Fill-40"></path>
                <path d="M15.1113,10.3335 C14.6203,10.3335 14.2223,10.7315 14.2223,11.2225 C14.2223,11.7135 14.6203,12.1115 15.1113,12.1115 C15.6013,12.1115 16.0003,11.7135 16.0003,11.2225 C16.0003,10.7315 15.6013,10.3335 15.1113,10.3335" id="Fill-42"></path>
                <path d="M15.1113,6.7778 C14.6203,6.7778 14.2223,7.1758 14.2223,7.6668 C14.2223,8.1578 14.6203,8.5558 15.1113,8.5558 C15.6013,8.5558 16.0003,8.1578 16.0003,7.6668 C16.0003,7.1758 15.6013,6.7778 15.1113,6.7778" id="Fill-44"></path>
            </g>
        </g>
        <g id="dtpr_icons-/-container-/-circle" stroke="#000000" stroke-width="2">
            <rect id="Rectangle" x="2" y="2" width="32" height="32" rx="15"></rect>
        </g>
    </g>
</svg>