<?xml version="1.0" encoding="UTF-8"?>
<svg width="36px" height="36px" viewBox="0 0 36 36" version="1.1" xmlns="http://www.w3.org/2000/svg" xmlns:xlink="http://www.w3.org/1999/xlink">
    <!-- Generator: Sketch 54 (76480) - https://sketchapp.com -->
    <title>dtpr_icons / process / rdua</title>
    <desc>Created with Sketch.</desc>
    <g id="dtpr_icons-/-process-/-rdua" stroke="none" stroke-width="1" fill="none" fill-rule="evenodd">
        <g id="Group-13" transform="translate(11.000000, 5.000000)" fill="#000000">
            <g id="Group-12">
                <path d="M7,24.5557 C6.509,24.5557 6.111,24.1577 6.111,23.6667 L6.111,20.9997 C6.111,20.5097 6.509,20.1117 7,20.1117 C7.491,20.1117 7.889,20.5097 7.889,20.9997 L7.889,23.6667 C7.889,24.1577 7.491,24.5557 7,24.5557" id="Fill-4"></path>
                <path d="M6.1099,22.0669 L4.5189,22.0669 C4.1189,22.0669 3.9229,22.5469 4.2079,22.8219 L6.6879,25.3109 C6.8649,25.4889 7.1409,25.4889 7.3189,25.3109 L9.7989,22.8309 C10.0739,22.5469 9.8789,22.0669 9.4789,22.0669 L7.8879,22.0669" id="Fill-6"></path>
                <path d="M5.6665,18.3335 C5.4665,18.3335 5.2705,18.2655 5.1115,18.1385 L0.6665,14.5835 C0.2835,14.2765 0.2215,13.7165 0.5285,13.3335 C0.8345,12.9505 1.3945,12.8885 1.7775,13.1945 L5.4645,16.1445 L12.0385,6.2845 C12.3105,5.8765 12.8625,5.7655 13.2705,6.0385 C13.6795,6.3105 13.7905,6.8625 13.5175,7.2705 L6.4065,17.9375 C6.2685,18.1455 6.0495,18.2845 5.8035,18.3225 C5.7575,18.3305 5.7115,18.3335 5.6665,18.3335" id="Fill-8"></path>
                <path d="M7,5.8887 L7,5.8887 C6.509,5.8887 6.111,5.4907 6.111,4.9997 L6.111,1.4447 C6.111,0.9537 6.509,0.5557 7,0.5557 C7.491,0.5557 7.889,0.9537 7.889,1.4447 L7.889,4.9997 C7.889,5.4907 7.491,5.8887 7,5.8887" id="Fill-10"></path>
            </g>
        </g>
        <g id="dtpr_icons-/-container-/-circle" stroke="#000000" stroke-width="2">
            <rect id="Rectangle" x="2" y="2" width="32" height="32" rx="15"></rect>
        </g>
    </g>
</svg>