<?xml version="1.0" encoding="UTF-8"?>
<svg width="36px" height="36px" viewBox="0 0 36 36" version="1.1" xmlns="http://www.w3.org/2000/svg" xmlns:xlink="http://www.w3.org/1999/xlink">
    <!-- Generator: Sketch 54 (76480) - https://sketchapp.com -->
    <title>dtpr_icons / process / regulated</title>
    <desc>Created with Sketch.</desc>
    <g id="dtpr_icons-/-process-/-regulated" stroke="none" stroke-width="1" fill="none" fill-rule="evenodd">
        <g id="Group-18" transform="translate(10.000000, 5.000000)" fill="#000000">
            <g id="Group">
                <path d="M10.4785,22.0669 L8.9155,22.0669 L8.9155,21.8889 C8.9155,21.3979 8.5175,20.9999 8.0265,20.9999 C7.5355,20.9999 7.1375,21.3979 7.1375,21.8889 L7.1375,22.0669 L7.1095,22.0669 L5.5185,22.0669 C5.1185,22.0669 4.9225,22.5469 5.2075,22.8219 L7.6875,25.3109 C7.8655,25.4889 8.1405,25.4889 8.3185,25.3109 L10.7985,22.8309 C11.0745,22.5469 10.8785,22.0669 10.4785,22.0669" id="Fill-4"></path>
                <path d="M8.0264,5 L8.0264,5 C8.5174,5 8.9154,4.602 8.9154,4.111 L8.9154,1.444 C8.9154,0.954 8.5174,0.556 8.0264,0.556 C7.5354,0.556 7.1374,0.954 7.1374,1.444 L7.1374,4.111 C7.1374,4.602 7.5354,5 8.0264,5" id="Fill-6"></path>
                <path d="M4.4443,11.6665 C3.9533,11.6665 3.5553,12.0645 3.5553,12.5555 L3.5553,16.1115 C3.5553,16.6025 3.9533,17.0005 4.4443,17.0005 C4.9353,17.0005 5.3333,16.6025 5.3333,16.1115 L5.3333,12.5555 C5.3333,12.0645 4.9353,11.6665 4.4443,11.6665" id="Fill-8"></path>
                <path d="M11.5557,11.6665 C11.0647,11.6665 10.6667,12.0645 10.6667,12.5555 L10.6667,16.1115 C10.6667,16.6025 11.0647,17.0005 11.5557,17.0005 C12.0467,17.0005 12.4447,16.6025 12.4447,16.1115 L12.4447,12.5555 C12.4447,12.0645 12.0467,11.6665 11.5557,11.6665" id="Fill-10"></path>
                <path d="M8,11.6665 C7.509,11.6665 7.111,12.0645 7.111,12.5555 L7.111,16.1145 C7.111,16.6055 7.509,17.0035 8,17.0035 C8.491,17.0035 8.889,16.6055 8.889,16.1145 L8.889,12.5555 C8.889,12.0645 8.491,11.6665 8,11.6665" id="Fill-12"></path>
                <path d="M14.2227,17.8887 L1.7777,17.8887 C1.2867,17.8887 0.8887,18.2867 0.8887,18.7777 C0.8887,19.2687 1.2867,19.6667 1.7777,19.6667 L14.2227,19.6667 C14.7127,19.6667 15.1117,19.2687 15.1117,18.7777 C15.1117,18.2867 14.7127,17.8887 14.2227,17.8887" id="Fill-14"></path>
                <path d="M1.7778,10.7778 L14.2228,10.7778 C14.6448,10.7778 15.0078,10.4808 15.0928,10.0678 C15.1778,9.6538 14.9598,9.2378 14.5718,9.0718 L8.3498,6.4048 C8.1268,6.3098 7.8738,6.3098 7.6498,6.4048 L1.4278,9.0718 C1.0398,9.2378 0.8218,9.6538 0.9068,10.0678 C0.9918,10.4808 1.3558,10.7778 1.7778,10.7778" id="Fill-16"></path>
            </g>
        </g>
        <g id="dtpr_icons-/-container-/-circle" stroke="#000000" stroke-width="2">
            <rect id="Rectangle" x="2" y="2" width="32" height="32" rx="15"></rect>
        </g>
    </g>
</svg>