<?xml version="1.0" encoding="UTF-8"?>
<svg width="36px" height="36px" viewBox="0 0 36 36" version="1.1" xmlns="http://www.w3.org/2000/svg" xmlns:xlink="http://www.w3.org/1999/xlink">
    <!-- Generator: Sketch 54 (76480) - https://sketchapp.com -->
    <title>dtpr_icons / accountable / org</title>
    <desc>Created with Sketch.</desc>
    <g id="dtpr_icons-/-accountable-/-org" stroke="none" stroke-width="1" fill="none" fill-rule="evenodd">
        <g id="dtpr_icons-/-container-/-hexagon" stroke="#000000">
            <g id="Group-6" transform="translate(4.000000, 2.000000)">
                <path d="M29,23.3623473 C29,24.1747401 28.5668669,24.9262388 27.8637022,25.3327062 L15.1374487,32.6944323 C14.4338084,33.1018559 13.5661916,33.1018559 12.8629306,32.6946518 L0.135278613,25.332498 C-0.56726465,24.9257096 -1,24.1743377 -1,23.3623473 L-1,8.63781792 C-1,7.82533466 -0.567409549,7.07453951 0.13562416,6.66746721 L12.8636403,-0.695557449 C13.5667275,-1.10148085 14.4332725,-1.10148085 15.1371226,-0.695116592 L27.863434,6.66730391 C28.5670118,7.07401009 29,7.82493224 29,8.63781792 L29,23.3623473 Z" id="Stroke-26" stroke-width="2"></path>
            </g>
        </g>
        <g id="baseline-business-24px" transform="translate(8.000000, 8.000000)">
            <polygon id="Path" points="0 0 20 0 20 20 0 20"></polygon>
            <path d="M10,5.83333333 L10,2.5 L1.66666667,2.5 L1.66666667,17.5 L18.3333333,17.5 L18.3333333,5.83333333 L10,5.83333333 Z M5,15.8333333 L3.33333333,15.8333333 L3.33333333,14.1666667 L5,14.1666667 L5,15.8333333 Z M5,12.5 L3.33333333,12.5 L3.33333333,10.8333333 L5,10.8333333 L5,12.5 Z M5,9.16666667 L3.33333333,9.16666667 L3.33333333,7.5 L5,7.5 L5,9.16666667 Z M5,5.83333333 L3.33333333,5.83333333 L3.33333333,4.16666667 L5,4.16666667 L5,5.83333333 Z M8.33333333,15.8333333 L6.66666667,15.8333333 L6.66666667,14.1666667 L8.33333333,14.1666667 L8.33333333,15.8333333 Z M8.33333333,12.5 L6.66666667,12.5 L6.66666667,10.8333333 L8.33333333,10.8333333 L8.33333333,12.5 Z M8.33333333,9.16666667 L6.66666667,9.16666667 L6.66666667,7.5 L8.33333333,7.5 L8.33333333,9.16666667 Z M8.33333333,5.83333333 L6.66666667,5.83333333 L6.66666667,4.16666667 L8.33333333,4.16666667 L8.33333333,5.83333333 Z M16.6666667,15.8333333 L10,15.8333333 L10,14.1666667 L11.6666667,14.1666667 L11.6666667,12.5 L10,12.5 L10,10.8333333 L11.6666667,10.8333333 L11.6666667,9.16666667 L10,9.16666667 L10,7.5 L16.6666667,7.5 L16.6666667,15.8333333 Z M15,9.16666667 L13.3333333,9.16666667 L13.3333333,10.8333333 L15,10.8333333 L15,9.16666667 Z M15,12.5 L13.3333333,12.5 L13.3333333,14.1666667 L15,14.1666667 L15,12.5 Z" id="Shape" fill="#000000" fill-rule="nonzero"></path>
        </g>
    </g>
</svg>