<?xml version="1.0" encoding="UTF-8"?>
<svg width="24px" height="24px" viewBox="0 0 24 24" version="1.1" xmlns="http://www.w3.org/2000/svg" xmlns:xlink="http://www.w3.org/1999/xlink">
    <!-- Generator: Sketch 54 (76480) - https://sketchapp.com -->
    <title>dtpr_icons / tech / ic_black / air</title>
    <desc>Created with Sketch.</desc>
    <g id="dtpr_icons-/-tech-/-ic_black-/-air" stroke="none" stroke-width="1" fill="none" fill-rule="evenodd">
        <g id="Group">
            <polygon id="Path" points="24 0 0 0 0 24 24 24"></polygon>
            <g id="Group-9" transform="translate(2.400000, 2.400000)" fill="#000000">
                <path d="M1.797,6.6738 C1.2438,6.6738 0.7962,6.225 0.7962,5.6742 C0.7962,5.121 1.2438,4.6734 1.797,4.6734 L13.7982,4.6734 C14.349,4.6734 14.7978,4.2246 14.7978,3.6738 C14.7978,3.1218 14.349,2.673 13.7982,2.673 C13.2462,2.673 12.7974,2.2254 12.7974,1.6734 C12.7974,1.1202 13.2462,0.6726 13.7982,0.6726 C14.2026,0.6726 14.5962,0.7518 14.967,0.909 C15.3234,1.0602 15.6438,1.2762 15.9198,1.551 C16.1946,1.827 16.4118,2.1474 16.563,2.505 C16.719,2.8758 16.7982,3.2682 16.7982,3.6738 C16.7982,4.077 16.719,4.4706 16.563,4.8414 C16.4118,5.199 16.1946,5.5194 15.9198,5.7954 C15.6438,6.0702 15.3234,6.2862 14.967,6.4374 C14.5962,6.5946 14.2026,6.6738 13.7982,6.6738 L1.797,6.6738 Z" id="Fill-3"></path>
                <path d="M11.7978,18.675 C11.2458,18.675 10.7982,18.2274 10.7982,17.6754 C10.7982,17.1234 11.2458,16.6746 11.7978,16.6746 C12.3498,16.6746 12.7974,16.2258 12.7974,15.675 C12.7974,15.123 12.3498,14.6754 11.7978,14.6754 L1.797,14.6754 C1.2438,14.6754 0.7962,14.2266 0.7962,13.6746 C0.7962,13.1226 1.2438,12.675 1.797,12.675 L11.7978,12.675 C12.2022,12.675 12.5958,12.753 12.9666,12.9102 C13.323,13.0614 13.6446,13.2774 13.9194,13.5534 C14.1942,13.8282 14.4114,14.1498 14.5626,14.5062 C14.7186,14.877 14.7978,15.2706 14.7978,15.675 C14.7978,16.0794 14.7186,16.473 14.5626,16.8426 C14.4114,17.2002 14.1942,17.5218 13.9194,17.7966 C13.6446,18.0714 13.323,18.2874 12.9666,18.4386 C12.5958,18.5958 12.2022,18.675 11.7978,18.675" id="Fill-5"></path>
                <path d="M16.7982,13.6752 C16.7982,13.122 17.2458,12.6744 17.799,12.6744 C18.3498,12.6744 18.7986,12.2256 18.7986,11.6748 C18.7986,11.1228 18.3498,10.674 17.799,10.674 L2.397,10.674 C1.845,10.674 1.3974,10.2264 1.3974,9.6744 C1.3974,9.1224 1.845,8.6736 2.397,8.6736 L17.799,8.6736 C18.2034,8.6736 18.5958,8.7528 18.9666,8.91 C19.3242,9.0612 19.6446,9.2772 19.9206,9.552 C20.1954,9.828 20.4114,10.1484 20.5626,10.506 C20.7198,10.8768 20.799,11.2692 20.799,11.6748 C20.799,12.0792 20.7198,12.4716 20.5626,12.8424 C20.4114,13.2 20.1954,13.5204 19.9206,13.7964 C19.6446,14.0712 19.3242,14.2872 18.9666,14.4384 C18.5958,14.5956 18.2034,14.6748 17.799,14.6748 C17.2458,14.6748 16.7982,14.226 16.7982,13.6752 Z" id="Fill-7"></path>
            </g>
        </g>
    </g>
</svg>