<?xml version="1.0" encoding="UTF-8"?>
<svg width="24px" height="24px" viewBox="0 0 24 24" version="1.1" xmlns="http://www.w3.org/2000/svg" xmlns:xlink="http://www.w3.org/1999/xlink">
    <!-- Generator: Sketch 54 (76480) - https://sketchapp.com -->
    <title>dtpr_icons / tech / ic_black / light</title>
    <desc>Created with Sketch.</desc>
    <g id="dtpr_icons-/-tech-/-ic_black-/-light" stroke="none" stroke-width="1" fill="none" fill-rule="evenodd">
        <g id="Group-2">
            <polygon id="Path" points="0 0 24 0 24 24 0 24"></polygon>
            <g id="Group-21" transform="translate(1.200000, 1.200000)" fill="#000000">
                <g id="Group">
                    <path d="M10.8,5.8 C8.04,5.8 5.8,8.04 5.8,10.8 C5.8,13.56 8.04,15.8 10.8,15.8 C13.56,15.8 15.8,13.56 15.8,10.8 C15.8,8.04 13.56,5.8 10.8,5.8 Z M10.8,13.8 C9.15,13.8 7.8,12.45 7.8,10.8 C7.8,9.15 9.15,7.8 10.8,7.8 C12.45,7.8 13.8,9.15 13.8,10.8 C13.8,12.45 12.45,13.8 10.8,13.8 Z" id="Shape" fill-rule="nonzero"></path>
                    <path d="M9.77205129,1.64345187 L9.77205129,2.6684992 C9.77205129,3.23578229 10.2310461,3.69477707 10.7970986,3.69477707 C11.3643817,3.69477707 11.8233765,3.23578229 11.8233765,2.6684992 L11.8233765,1.64345187 C11.8233765,1.07739933 11.3643817,0.618404547 10.7970986,0.618404547 C10.2310461,0.618404547 9.77205129,1.07739933 9.77205129,1.64345187" id="Fill-5"></path>
                    <path d="M10.7975908,18.0528229 C10.2315383,18.0528229 9.77254351,18.5130483 9.77254351,19.0778703 L9.77254351,20.1041481 C9.77254351,20.6702007 10.2315383,21.1291955 10.7975908,21.1291955 C11.3636434,21.1291955 11.8226382,20.6702007 11.8226382,20.1041481 L11.8226382,19.0778703 C11.8226382,18.5130483 11.3636434,18.0528229 10.7975908,18.0528229" id="Fill-7"></path>
                    <path d="M17.977229,10.8738 C17.977229,11.4398525 18.4362238,11.8988473 19.0022764,11.8988473 L20.0285542,11.8988473 C20.5946068,11.8988473 21.0536016,11.4398525 21.0536016,10.8738 C21.0536016,10.3077475 20.5946068,9.84875267 20.0285542,9.84875267 L19.0022764,9.84875267 C18.4362238,9.84875267 17.977229,10.3077475 17.977229,10.8738" id="Fill-9"></path>
                    <path d="M3.61869096,10.8738 C3.61869096,10.3077475 3.15969618,9.84875267 2.59364364,9.84875267 L1.56736576,9.84875267 C1.00131322,9.84875267 0.542318437,10.3077475 0.542318437,10.8738 C0.542318437,11.4398525 1.00131322,11.8988473 1.56736576,11.8988473 L2.59364364,11.8988473 C3.15969618,11.8988473 3.61869096,11.4398525 3.61869096,10.8738" id="Fill-11"></path>
                    <path d="M4.27051277,5.79778533 C4.47109226,5.99836482 4.7331992,6.09803929 4.99530614,6.09803929 C5.25864363,6.09803929 5.52075057,5.99836482 5.72133006,5.79778533 C6.12125849,5.39662635 6.12125849,4.74689648 5.72133006,4.34696805 L4.99530614,3.62217468 C4.59537771,3.2210157 3.94564784,3.2210157 3.54571941,3.62217468 C3.14456043,4.02210311 3.14456043,4.67183299 3.54571941,5.07299196 L4.27051277,5.79778533 Z" id="Fill-13"></path>
                    <path d="M17.3246689,15.9504299 C16.9247405,15.549271 16.27378,15.549271 15.8738516,15.9504299 C15.4739232,16.3503584 15.4739232,17.0000882 15.8738516,17.4012472 L16.598645,18.1260406 C16.7992245,18.3266201 17.0613314,18.4262946 17.3246689,18.4262946 C17.5867758,18.4262946 17.8501133,18.3266201 18.0494623,18.1260406 C18.4506212,17.7248816 18.4506212,17.0763823 18.0494623,16.6752233 L17.3246689,15.9504299 Z" id="Fill-15"></path>
                    <path d="M16.5988911,6.09767013 C16.8622286,6.09767013 17.1243355,5.99799566 17.324915,5.79741617 L18.0497084,5.0726228 C18.4508674,4.67146382 18.4508674,4.02173395 18.0497084,3.62180552 C17.6497799,3.22187709 17.0000501,3.22187709 16.5988911,3.62180552 L15.8740977,4.34782943 C15.4741693,4.74775786 15.4741693,5.39748774 15.8740977,5.79741617 C16.0746772,5.99799566 16.3367842,6.09767013 16.5988911,6.09767013" id="Fill-17"></path>
                    <path d="M4.27051277,15.9504299 L3.54571941,16.6752233 C3.14456043,17.0763823 3.14456043,17.7248816 3.54571941,18.1260406 C3.7462989,18.3266201 4.00840584,18.4262946 4.27051277,18.4262946 C4.53261971,18.4262946 4.7959572,18.3266201 4.99530614,18.1260406 L5.72133006,17.4012472 C6.12125849,17.0000882 6.12125849,16.3503584 5.72133006,15.9504299 C5.32140163,15.549271 4.67167175,15.549271 4.27051277,15.9504299" id="Fill-19"></path>
                </g>
            </g>
        </g>
    </g>
</svg>