<?xml version="1.0" encoding="UTF-8"?>
<svg width="24px" height="24px" viewBox="0 0 24 24" version="1.1" xmlns="http://www.w3.org/2000/svg" xmlns:xlink="http://www.w3.org/1999/xlink">
    <!-- Generator: Sketch 54 (76480) - https://sketchapp.com -->
    <title>dtpr_icons / tech / ic_black / wave</title>
    <desc>Created with Sketch.</desc>
    <g id="dtpr_icons-/-tech-/-ic_black-/-wave" stroke="none" stroke-width="1" fill="none" fill-rule="evenodd">
        <polygon id="Path" points="0 0 24 0 24 24 0 24"></polygon>
        <circle id="Oval" fill="#000000" cx="12" cy="12" r="2"></circle>
        <path d="M16.2426407,16.2426407 C15.8521164,16.633165 15.2189514,16.633165 14.8284271,16.2426407 C14.4379028,15.8521164 14.4379028,15.2189514 14.8284271,14.8284271 C16.3905243,13.26633 16.3905243,10.73367 14.8284271,9.17157288 C13.26633,7.60947571 10.73367,7.60947571 9.17157288,9.17157288 C7.60947571,10.73367 7.60947571,13.26633 9.17157288,14.8284271 C9.56209717,15.2189514 9.56209717,15.8521164 9.17157288,16.2426407 C8.78104858,16.633165 8.1478836,16.633165 7.75735931,16.2426407 C5.41421356,13.8994949 5.41421356,10.1005051 7.75735931,7.75735931 C10.1005051,5.41421356 13.8994949,5.41421356 16.2426407,7.75735931 C18.5857864,10.1005051 18.5857864,13.8994949 16.2426407,16.2426407 Z" id="Path" fill="#000000" fill-rule="nonzero"></path>
        <path d="M19.0710678,19.0710678 C18.6805435,19.4615921 18.0473785,19.4615921 17.6568542,19.0710678 C17.26633,18.6805435 17.26633,18.0473785 17.6568542,17.6568542 C20.7810486,14.5326599 20.7810486,9.46734008 17.6568542,6.34314575 C14.5326599,3.21895142 9.46734008,3.21895142 6.34314575,6.34314575 C3.21895142,9.46734008 3.21895142,14.5326599 6.34314575,17.6568542 C6.73367004,18.0473785 6.73367004,18.6805435 6.34314575,19.0710678 C5.95262146,19.4615921 5.31945648,19.4615921 4.92893219,19.0710678 C1.02368927,15.1658249 1.02368927,8.83417511 4.92893219,4.92893219 C8.83417511,1.02368927 15.1658249,1.02368927 19.0710678,4.92893219 C22.9763107,8.83417511 22.9763107,15.1658249 19.0710678,19.0710678 Z" id="Path" fill="#000000" fill-rule="nonzero"></path>
    </g>
</svg>