<?xml version="1.0" encoding="UTF-8"?>
<svg width="36px" height="36px" viewBox="0 0 36 36" version="1.1" xmlns="http://www.w3.org/2000/svg" xmlns:xlink="http://www.w3.org/1999/xlink">
    <!-- Generator: Sketch 54 (76480) - https://sketchapp.com -->
    <title>dtpr_icons / purpose / white / agency</title>
    <desc>Created with Sketch.</desc>
    <defs>
        <polygon id="path-1" points="0.0414 0 4.9999 0 4.9999 4.9583 0.0414 4.9583"></polygon>
        <polygon id="path-3" points="0 0.1274 16.8729 0.1274 16.8729 17 0 17"></polygon>
    </defs>
    <g id="dtpr_icons-/-purpose-/-white-/-agency" stroke="none" stroke-width="1" fill="none" fill-rule="evenodd">
        <g id="dtpr_icons-/-container-/-hexagon" stroke="#000000">
            <g id="Group-6" transform="translate(4.000000, 2.000000)">
                <path d="M29,23.3623473 C29,24.1747401 28.5668669,24.9262388 27.8637022,25.3327062 L15.1374487,32.6944323 C14.4338084,33.1018559 13.5661916,33.1018559 12.8629306,32.6946518 L0.135278613,25.332498 C-0.56726465,24.9257096 -1,24.1743377 -1,23.3623473 L-1,8.63781792 C-1,7.82533466 -0.567409549,7.07453951 0.13562416,6.66746721 L12.8636403,-0.695557449 C13.5667275,-1.10148085 14.4332725,-1.10148085 15.1371226,-0.695116592 L27.863434,6.66730391 C28.5670118,7.07401009 29,7.82493224 29,8.63781792 L29,23.3623473 Z" id="Stroke-26" stroke-width="2"></path>
            </g>
        </g>
        <g id="dtpr_icons-/-purpose-/-ic_black-/-agency" transform="translate(6.000000, 6.000000)">
            <rect id="Container" x="0" y="0" width="24" height="24"></rect>
            <g id="Group-7" stroke-width="1" fill-rule="evenodd" transform="translate(2.000000, 2.000000)">
                <g id="Group-3" transform="translate(15.000000, 0.000000)">
                    <mask id="mask-2" fill="white">
                        <use xlink:href="#path-1"></use>
                    </mask>
                    <g id="Clip-2"></g>
                    <path d="M4.6204,1.2953 L3.7044,0.3793 C3.1984,-0.1267 2.3794,-0.1267 1.8734,0.3793 L0.0414,2.2113 L2.7894,4.9583 L4.6204,3.1273 C5.1264,2.6213 5.1264,1.8013 4.6204,1.2953" id="Fill-1" fill="#000000" mask="url(#mask-2)"></path>
                </g>
                <g id="Group-6" transform="translate(0.000000, 3.000000)">
                    <mask id="mask-4" fill="white">
                        <use xlink:href="#path-3"></use>
                    </mask>
                    <g id="Clip-5"></g>
                    <path d="M1.5149,12.7374 C1.3719,12.8794 1.2659,13.0524 1.2029,13.2434 L0.0069,16.8294 C-0.0271,16.9304 0.0699,17.0274 0.1709,16.9934 L3.7559,15.7984 C3.9479,15.7344 4.1199,15.6274 4.2629,15.4854 L16.8729,2.8744 L14.1249,0.1274 L1.5149,12.7374 Z" id="Fill-4" fill="#000000" mask="url(#mask-4)"></path>
                </g>
            </g>
        </g>
    </g>
</svg>