<?xml version="1.0" encoding="UTF-8"?>
<svg width="36px" height="36px" viewBox="0 0 36 36" version="1.1" xmlns="http://www.w3.org/2000/svg" xmlns:xlink="http://www.w3.org/1999/xlink">
    <!-- Generator: Sketch 54 (76480) - https://sketchapp.com -->
    <title>dtpr_icons / purpose / white / waste</title>
    <desc>Created with Sketch.</desc>
    <defs>
        <polygon id="path-1" points="0 0.9959 15 0.9959 15 3.9999 0 3.9999"></polygon>
    </defs>
    <g id="dtpr_icons-/-purpose-/-white-/-waste" stroke="none" stroke-width="1" fill="none" fill-rule="evenodd">
        <g id="dtpr_icons-/-container-/-hexagon" stroke="#000000">
            <g id="Group-6" transform="translate(4.000000, 2.000000)">
                <path d="M29,23.3623473 C29,24.1747401 28.5668669,24.9262388 27.8637022,25.3327062 L15.1374487,32.6944323 C14.4338084,33.1018559 13.5661916,33.1018559 12.8629306,32.6946518 L0.135278613,25.332498 C-0.56726465,24.9257096 -1,24.1743377 -1,23.3623473 L-1,8.63781792 C-1,7.82533466 -0.567409549,7.07453951 0.13562416,6.66746721 L12.8636403,-0.695557449 C13.5667275,-1.10148085 14.4332725,-1.10148085 15.1371226,-0.695116592 L27.863434,6.66730391 C28.5670118,7.07401009 29,7.82493224 29,8.63781792 L29,23.3623473 Z" id="Stroke-26" stroke-width="2"></path>
            </g>
        </g>
        <g id="dtpr_icons-/-purpose-/-ic_black-/-waste" transform="translate(6.000000, 6.000000)">
            <rect id="Container" x="0" y="0" width="24" height="24"></rect>
            <g id="Group-6" stroke-width="1" fill-rule="evenodd" transform="translate(5.000000, 2.000000)">
                <path d="M1.5,17.0044 C1.5,18.1084 2.396,19.0044 3.5,19.0044 L11.5,19.0044 C12.605,19.0044 13.5,18.1084 13.5,17.0044 L13.5,5.0044 L1.5,5.0044 L1.5,17.0044 Z" id="Fill-1" fill="#000000"></path>
                <g id="Group-5" transform="translate(0.000000, 0.004500)">
                    <mask id="mask-2" fill="white">
                        <use xlink:href="#path-1"></use>
                    </mask>
                    <g id="Clip-4"></g>
                    <path d="M14.0576,1.9999 L13.1256,1.9999 L13.1256,1.9389 C13.1256,1.4179 12.7026,0.9959 12.1816,0.9959 L2.8186,0.9959 C2.2976,0.9959 1.8746,1.4179 1.8746,1.9389 L1.8746,1.9999 L0.9426,1.9999 C0.4226,1.9999 -0.0004,2.4219 -0.0004,2.9429 L-0.0004,3.0569 C-0.0004,3.5779 0.4226,3.9999 0.9426,3.9999 L14.0576,3.9999 C14.5786,3.9999 15.0006,3.5779 15.0006,3.0569 L15.0006,2.9429 C15.0006,2.4219 14.5786,1.9999 14.0576,1.9999" id="Fill-3" fill="#000000" mask="url(#mask-2)"></path>
                </g>
            </g>
        </g>
    </g>
</svg>