<?xml version="1.0" encoding="UTF-8"?>
<svg width="24px" height="24px" viewBox="0 0 24 24" version="1.1" xmlns="http://www.w3.org/2000/svg" xmlns:xlink="http://www.w3.org/1999/xlink">
    <!-- Generator: Sketch 54 (76480) - https://sketchapp.com -->
    <title>dtpr_icons / purpose / ic_white / emergency</title>
    <desc>Created with Sketch.</desc>
    <g id="dtpr_icons-/-purpose-/-ic_white-/-emergency" stroke="none" stroke-width="1" fill="none" fill-rule="evenodd">
        <rect id="Container" x="0" y="0" width="24" height="24"></rect>
        <path d="M21.0020817,14.335 L16.9768441,12 L21.0020817,9.665 C21.4788594,9.389 21.6411031,8.777 21.3663836,8.299 L19.873343,5.701 C19.5986235,5.223 18.9904582,5.059 18.5136806,5.335 L14.4884429,7.67 L14.4884429,3 C14.4884429,2.448 14.0425215,2 13.4930825,2 L10.5070012,2 C9.95756219,2 9.51164071,2.448 9.51164071,3 L9.51164071,7.67 L5.48640306,5.335 C5.01062077,5.059 4.40146018,5.223 4.12574533,5.701 L2.63270466,8.299 C2.35898054,8.777 2.52221965,9.389 2.99800195,9.665 L7.02323959,12 L2.99800195,14.335 C2.52221965,14.611 2.35898054,15.223 2.63270466,15.701 L4.12574533,18.299 C4.40146018,18.777 5.01062077,18.941 5.48640306,18.665 L9.51164071,16.33 L9.51164071,21 C9.51164071,21.552 9.95756219,22 10.5070012,22 L13.4930825,22 C14.0425215,22 14.4884429,21.552 14.4884429,21 L14.4884429,16.33 L18.5136806,18.665 C18.9904582,18.941 19.5986235,18.777 19.873343,18.299 L21.3663836,15.701 C21.6411031,15.223 21.4788594,14.611 21.0020817,14.335" id="Fill-1" fill="#FFFFFF"></path>
    </g>
</svg>