<?xml version="1.0" encoding="UTF-8"?>
<svg width="24px" height="24px" viewBox="0 0 24 24" version="1.1" xmlns="http://www.w3.org/2000/svg" xmlns:xlink="http://www.w3.org/1999/xlink">
    <!-- Generator: Sketch 57.1 (83088) - https://sketch.com -->
    <title>dtpr_icons / purpose / ic_white / research</title>
    <desc>Created with Sketch.</desc>
    <defs>
        <polygon id="path-1" points="0.0001 0.0002 18 0.0002 18 20.0112 0.0001 20.0112"></polygon>
    </defs>
    <g id="dtpr_icons-/-purpose-/-ic_white-/-research" stroke="none" stroke-width="1" fill="none" fill-rule="evenodd">
        <rect id="Container" x="0" y="0" width="24" height="24"></rect>
        <g id="Group-3" transform="translate(3.000000, 2.000000)">
            <mask id="mask-2" fill="white">
                <use xlink:href="#path-1"></use>
            </mask>
            <g id="Clip-2"></g>
            <path d="M16.9971,12.4742 L8.9531,12.4742 C8.3991,12.4742 7.9511,12.9232 7.9511,13.4772 L7.9511,13.9842 C7.9511,14.5372 8.3991,14.9872 8.9531,14.9872 L10.9841,14.9872 C10.8911,15.0552 10.7941,15.1202 10.6951,15.1822 C9.9131,15.6702 9.0101,15.9292 8.0821,15.9292 C7.4141,15.9292 6.7671,15.7982 6.1591,15.5412 C5.5701,15.2922 5.0421,14.9362 4.5881,14.4822 C4.1331,14.0272 3.7761,13.4982 3.5281,12.9112 C3.2701,12.3022 3.1411,11.6552 3.1411,10.9882 C3.1411,9.5922 3.7251,8.2822 4.7321,7.3532 L6.0251,8.6462 C6.4171,9.0372 7.0521,9.0372 7.4431,8.6462 L8.6901,7.3992 C9.0811,7.0072 9.0811,6.3722 8.6901,5.9822 L3.0021,0.2932 C2.6101,-0.0978 1.9761,-0.0978 1.5841,0.2932 L0.3381,1.5402 C-0.0539,1.9322 -0.0539,2.5672 0.3381,2.9582 L2.5121,5.1322 C1.9101,5.7052 1.3961,6.3702 0.9961,7.0972 C0.6751,7.6812 0.4281,8.3042 0.2601,8.9482 C0.0881,9.6112 0.0001,10.2972 0.0001,10.9882 C0.0001,12.0782 0.2141,13.1362 0.6361,14.1332 C1.0431,15.0962 1.6251,15.9602 2.3671,16.7022 C2.6571,16.9932 2.9671,17.2582 3.2931,17.4982 L1.1931,17.4982 C0.6401,17.4982 0.1911,17.9482 0.1911,18.5012 L0.1911,19.0082 C0.1911,19.5622 0.6401,20.0112 1.1931,20.0112 L14.2621,20.0112 C14.8151,20.0112 15.2651,19.5622 15.2651,19.0082 L15.2651,18.5012 C15.2651,17.9482 14.8151,17.4982 14.2621,17.4982 L12.8691,17.4982 C13.7811,16.8282 14.5441,15.9712 15.1051,14.9872 L16.9971,14.9872 C17.5511,14.9872 18.0001,14.5372 18.0001,13.9842 L18.0001,13.4772 C18.0001,12.9232 17.5511,12.4742 16.9971,12.4742" id="Fill-1" fill="#FFFFFF" mask="url(#mask-2)"></path>
        </g>
    </g>
</svg>