<?xml version="1.0" encoding="UTF-8"?>
<svg width="24px" height="24px" viewBox="0 0 24 24" version="1.1" xmlns="http://www.w3.org/2000/svg" xmlns:xlink="http://www.w3.org/1999/xlink">
    <!-- Generator: Sketch 54 (76480) - https://sketchapp.com -->
    <title>dtpr_icons / purpose / ic_black / mobility</title>
    <desc>Created with Sketch.</desc>
    <defs>
        <polygon id="path-1" points="0.0004 0 17.3814 0 17.3814 17.9996 0.0004 17.9996"></polygon>
    </defs>
    <g id="dtpr_icons-/-purpose-/-ic_black-/-mobility" stroke="none" stroke-width="1" fill="none" fill-rule="evenodd">
        <rect id="Container" x="0" y="0" width="24" height="24"></rect>
        <g id="Group-3" transform="translate(3.000000, 3.000000)">
            <mask id="mask-2" fill="white">
                <use xlink:href="#path-1"></use>
            </mask>
            <g id="Clip-2"></g>
            <path d="M16.3374,1.6626 L13.9494,4.0506 L15.3634,2.6356 C14.5384,1.8096 13.5754,1.1616 12.5044,0.7076 C11.3934,0.2386 10.2134,-0.0004 9.0004,-0.0004 C7.7854,-0.0004 6.6074,0.2386 5.4964,0.7076 C4.4244,1.1616 3.4624,1.8096 2.6364,2.6356 C1.8104,3.4616 1.1614,4.4246 0.7084,5.4956 C0.2384,6.6066 0.0004,7.7856 0.0004,8.9996 C0.0004,10.2146 0.2384,11.3926 0.7084,12.5036 C1.1614,13.5756 1.8104,14.5376 2.6364,15.3636 C3.4624,16.1896 4.4244,16.8386 5.4964,17.2916 C6.6074,17.7616 7.7854,17.9996 9.0004,17.9996 C10.2134,17.9996 11.3934,17.7616 12.5044,17.2916 C13.5754,16.8386 14.5384,16.1896 15.3634,15.3636 C15.8764,14.8516 16.3194,14.2876 16.6914,13.6776 C17.0044,13.1626 16.7924,12.4906 16.2414,12.2456 L14.3934,11.4246 C13.9484,11.2266 13.4274,11.3796 13.1554,11.7836 C12.9754,12.0506 12.7684,12.3026 12.5354,12.5356 C11.5914,13.4796 10.3354,13.9996 9.0004,13.9996 C7.6644,13.9996 6.4084,13.4796 5.4644,12.5356 C4.5204,11.5906 4.0004,10.3356 4.0004,8.9996 C4.0004,7.6646 4.5204,6.4086 5.4644,5.4646 C6.4084,4.5196 7.6644,3.9996 9.0004,3.9996 C10.3354,3.9996 11.5914,4.5196 12.5354,5.4646 L11.5624,6.4386 C11.1764,6.8236 11.4504,7.4736 11.9894,7.4646 L16.7744,7.4736 C17.1164,7.4736 17.3814,7.2086 17.3814,6.8656 L17.3814,2.0906 C17.3734,1.5516 16.7224,1.2776 16.3374,1.6626" id="Fill-1" fill="#000000" mask="url(#mask-2)"></path>
        </g>
    </g>
</svg>