<?xml version="1.0" encoding="UTF-8"?>
<svg width="36px" height="36px" viewBox="0 0 36 36" version="1.1" xmlns="http://www.w3.org/2000/svg" xmlns:xlink="http://www.w3.org/1999/xlink">
    <!-- Generator: Sketch 54 (76480) - https://sketchapp.com -->
    <title>dtpr_icons / tech / blue / sound</title>
    <desc>Created with Sketch.</desc>
    <g id="dtpr_icons-/-tech-/-blue-/-sound" stroke="none" stroke-width="1" fill="none" fill-rule="evenodd">
        <g id="dtpr_icons-/-container-/-blue-/-hexagon" fill="#36B2E6" stroke="#36B2E6">
            <g id="Group-6" transform="translate(4.000000, 2.000000)">
                <path d="M29,23.3623473 C29,24.1747401 28.5668669,24.9262388 27.8637022,25.3327062 L15.1374487,32.6944323 C14.4338084,33.1018559 13.5661916,33.1018559 12.8629306,32.6946518 L0.135278613,25.332498 C-0.56726465,24.9257096 -1,24.1743377 -1,23.3623473 L-1,8.63781792 C-1,7.82533466 -0.567409549,7.07453951 0.13562416,6.66746721 L12.8636403,-0.695557449 C13.5667275,-1.10148085 14.4332725,-1.10148085 15.1371226,-0.695116592 L27.863434,6.66730391 C28.5670118,7.07401009 29,7.82493224 29,8.63781792 L29,23.3623473 Z" id="Stroke-26" stroke-width="2"></path>
            </g>
        </g>
        <g id="dtpr_icons-/-tech-/-ic_black-/-sound" transform="translate(6.000000, 6.000000)">
            <g id="Group">
                <polygon id="Path" points="0 0 24 0 24 24 0 24"></polygon>
                <rect id="Rectangle" fill="#000000" x="1.2" y="8.4" width="2.4" height="7.2" rx="1.2"></rect>
                <rect id="Rectangle" fill="#000000" x="6" y="4.8" width="2.4" height="14.4" rx="1.2"></rect>
                <rect id="Rectangle" fill="#000000" x="10.8" y="2.4" width="2.4" height="19.2" rx="1.2"></rect>
                <rect id="Rectangle" fill="#000000" x="15.6" y="4.8" width="2.4" height="14.4" rx="1.2"></rect>
                <rect id="Rectangle" fill="#000000" x="20.4" y="8.4" width="2.4" height="7.2" rx="1.2"></rect>
            </g>
        </g>
    </g>
</svg>