<?xml version="1.0" encoding="UTF-8"?>
<svg width="36px" height="36px" viewBox="0 0 36 36" version="1.1" xmlns="http://www.w3.org/2000/svg" xmlns:xlink="http://www.w3.org/1999/xlink">
    <!-- Generator: Sketch 54 (76480) - https://sketchapp.com -->
    <title>dtpr_icons / tech / blue / wave</title>
    <desc>Created with Sketch.</desc>
    <g id="dtpr_icons-/-tech-/-blue-/-wave" stroke="none" stroke-width="1" fill="none" fill-rule="evenodd">
        <g id="dtpr_icons-/-container-/-blue-/-hexagon" fill="#36B2E6" stroke="#36B2E6">
            <g id="Group-6" transform="translate(4.000000, 2.000000)">
                <path d="M29,23.3623473 C29,24.1747401 28.5668669,24.9262388 27.8637022,25.3327062 L15.1374487,32.6944323 C14.4338084,33.1018559 13.5661916,33.1018559 12.8629306,32.6946518 L0.135278613,25.332498 C-0.56726465,24.9257096 -1,24.1743377 -1,23.3623473 L-1,8.63781792 C-1,7.82533466 -0.567409549,7.07453951 0.13562416,6.66746721 L12.8636403,-0.695557449 C13.5667275,-1.10148085 14.4332725,-1.10148085 15.1371226,-0.695116592 L27.863434,6.66730391 C28.5670118,7.07401009 29,7.82493224 29,8.63781792 L29,23.3623473 Z" id="Stroke-26" stroke-width="2"></path>
            </g>
        </g>
        <g id="dtpr_icons-/-tech-/-ic_black-/-wave" transform="translate(6.000000, 6.000000)">
            <polygon id="Path" points="0 0 24 0 24 24 0 24"></polygon>
            <circle id="Oval" fill="#000000" fill-rule="evenodd" cx="12" cy="12" r="2"></circle>
            <path d="M16.2426407,16.2426407 C15.8521164,16.633165 15.2189514,16.633165 14.8284271,16.2426407 C14.4379028,15.8521164 14.4379028,15.2189514 14.8284271,14.8284271 C16.3905243,13.26633 16.3905243,10.73367 14.8284271,9.17157288 C13.26633,7.60947571 10.73367,7.60947571 9.17157288,9.17157288 C7.60947571,10.73367 7.60947571,13.26633 9.17157288,14.8284271 C9.56209717,15.2189514 9.56209717,15.8521164 9.17157288,16.2426407 C8.78104858,16.633165 8.1478836,16.633165 7.75735931,16.2426407 C5.41421356,13.8994949 5.41421356,10.1005051 7.75735931,7.75735931 C10.1005051,5.41421356 13.8994949,5.41421356 16.2426407,7.75735931 C18.5857864,10.1005051 18.5857864,13.8994949 16.2426407,16.2426407 Z" id="Path" fill="#000000" fill-rule="nonzero"></path>
            <path d="M19.0710678,19.0710678 C18.6805435,19.4615921 18.0473785,19.4615921 17.6568542,19.0710678 C17.26633,18.6805435 17.26633,18.0473785 17.6568542,17.6568542 C20.7810486,14.5326599 20.7810486,9.46734008 17.6568542,6.34314575 C14.5326599,3.21895142 9.46734008,3.21895142 6.34314575,6.34314575 C3.21895142,9.46734008 3.21895142,14.5326599 6.34314575,17.6568542 C6.73367004,18.0473785 6.73367004,18.6805435 6.34314575,19.0710678 C5.95262146,19.4615921 5.31945648,19.4615921 4.92893219,19.0710678 C1.02368927,15.1658249 1.02368927,8.83417511 4.92893219,4.92893219 C8.83417511,1.02368927 15.1658249,1.02368927 19.0710678,4.92893219 C22.9763107,8.83417511 22.9763107,15.1658249 19.0710678,19.0710678 Z" id="Path" fill="#000000" fill-rule="nonzero"></path>
        </g>
    </g>
</svg>