<?xml version="1.0" encoding="UTF-8"?>
<svg width="36px" height="36px" viewBox="0 0 36 36" version="1.1" xmlns="http://www.w3.org/2000/svg" xmlns:xlink="http://www.w3.org/1999/xlink">
    <!-- Generator: Sketch 54 (76480) - https://sketchapp.com -->
    <title>dtpr_icons / tech / yellow / voice</title>
    <desc>Created with Sketch.</desc>
    <g id="dtpr_icons-/-tech-/-yellow-/-voice" stroke="none" stroke-width="1" fill="none" fill-rule="evenodd">
        <g id="dtpr_icons-/-container-/-yellow-/-hexagon" fill="#FFDD00" stroke="#FFDD00">
            <g id="Group-6" transform="translate(4.000000, 2.000000)">
                <path d="M29,23.3623473 C29,24.1747401 28.5668669,24.9262388 27.8637022,25.3327062 L15.1374487,32.6944323 C14.4338084,33.1018559 13.5661916,33.1018559 12.8629306,32.6946518 L0.135278613,25.332498 C-0.56726465,24.9257096 -1,24.1743377 -1,23.3623473 L-1,8.63781792 C-1,7.82533466 -0.567409549,7.07453951 0.13562416,6.66746721 L12.8636403,-0.695557449 C13.5667275,-1.10148085 14.4332725,-1.10148085 15.1371226,-0.695116592 L27.863434,6.66730391 C28.5670118,7.07401009 29,7.82493224 29,8.63781792 L29,23.3623473 Z" id="Stroke-26" stroke-width="2"></path>
            </g>
        </g>
        <g id="dtpr_icons-/-tech-/-ic_black-/-voice" transform="translate(6.000000, 6.000000)">
            <polygon id="Path" points="0 0 24 0 24 24 0 24"></polygon>
            <path d="M13,18.9291111 L13,22 L11,22 L11,18.9291111 C7.60770586,18.4438815 5,15.5264719 5,12 C5,11.4477153 5.44771525,11 6,11 C6.55228475,11 7,11.4477153 7,12 C7,14.7614237 9.23857625,17 12,17 C14.7614237,17 17,14.7614237 17,12 C17,11.4477153 17.4477153,11 18,11 C18.5522847,11 19,11.4477153 19,12 C19,15.5264719 16.3922941,18.4438815 13,18.9291111 Z" id="Combined-Shape" fill="#000000" fill-rule="nonzero"></path>
            <rect id="Rectangle" stroke="#000000" stroke-width="2" x="10" y="4" width="4" height="10" rx="2"></rect>
        </g>
    </g>
</svg>